<svg xmlns="http://www.w3.org/2000/svg" width="892" height="769"><g fill="#E5E5E5" fill-rule="nonzero" transform="translate(-1)"><rect width="203" height="32" x="1" rx="2"/><rect width="434" height="32" x="1" y="59" rx="2"/><rect width="434" height="32" y="118" rx="2"/><rect width="434" height="32" y="177" rx="2"/><rect width="434" height="32" x="1" y="236" rx="2"/><rect width="434" height="32" x="1" y="295" rx="2"/><rect width="434" height="32" x="1" y="354" rx="2"/><rect width="434" height="32" x="1" y="413" rx="2"/><rect width="892" height="204" x="1" y="474" rx="2"/><rect width="203" height="32" x="231" rx="2"/><rect width="203" height="32" x="510" rx="2"/><rect width="427" height="91" x="466" y="59" rx="2"/><rect width="304" height="64" x="589" y="705" rx="2"/><rect width="32" height="32" x="466" rx="2"/><rect width="203" height="32" x="45" y="705" rx="2"/><rect width="32" height="32" x="1" y="705" rx="2"/></g></svg>