<svg xmlns="http://www.w3.org/2000/svg" width="500" height="280" xml:space="preserve"><path style="stroke:#05469c;stroke-width:0;stroke-dasharray:none;stroke-linecap:butt;stroke-dashoffset:0;stroke-linejoin:miter;stroke-miterlimit:4;fill:#e5e5e5;fill-rule:nonzero;opacity:1" vector-effect="non-scaling-stroke" transform="matrix(1 0 0 1.12 122.03 138.98)" d="M-113.277-113.277h226.554v226.554h-226.554z"/><path style="stroke:#01a00f;stroke-width:0;stroke-dasharray:none;stroke-linecap:butt;stroke-dashoffset:0;stroke-linejoin:miter;stroke-miterlimit:4;fill:#e5e5e5;fill-rule:nonzero;opacity:1" vector-effect="non-scaling-stroke" transform="matrix(1.09 0 0 .21 368.64 34.18)" d="M-108.475-108.475h216.95v216.95h-216.95z"/><path style="stroke:#8562e7;stroke-width:0;stroke-dasharray:none;stroke-linecap:butt;stroke-dashoffset:0;stroke-linejoin:miter;stroke-miterlimit:4;fill:#e5e5e5;fill-rule:nonzero;opacity:1" vector-effect="non-scaling-stroke" transform="matrix(.23 0 0 .23 250.35 71.383)" d="m50 0 14.833 32.158L100 36.327 74 60.371l6.902 34.735L50 77.808 19.099 95.106 26 60.37 0 36.327l35.167-4.17z"/><path style="stroke:#8562e7;stroke-width:0;stroke-dasharray:none;stroke-linecap:butt;stroke-dashoffset:0;stroke-linejoin:miter;stroke-miterlimit:4;fill:#e5e5e5;fill-rule:nonzero;opacity:1" vector-effect="non-scaling-stroke" transform="matrix(.23 0 0 .23 280.69 71.523)" d="m50 0 14.833 32.158L100 36.327 74 60.371l6.902 34.735L50 77.808 19.099 95.106 26 60.37 0 36.327l35.167-4.17z"/><path style="stroke:#8562e7;stroke-width:0;stroke-dasharray:none;stroke-linecap:butt;stroke-dashoffset:0;stroke-linejoin:miter;stroke-miterlimit:4;fill:#e5e5e5;fill-rule:nonzero;opacity:1" vector-effect="non-scaling-stroke" transform="matrix(.23 0 0 .23 311.03 71.244)" d="m50 0 14.833 32.158L100 36.327 74 60.371l6.902 34.735L50 77.808 19.099 95.106 26 60.37 0 36.327l35.167-4.17z"/><path style="stroke:#8562e7;stroke-width:0;stroke-dasharray:none;stroke-linecap:butt;stroke-dashoffset:0;stroke-linejoin:miter;stroke-miterlimit:4;fill:#e5e5e5;fill-rule:nonzero;opacity:1" vector-effect="non-scaling-stroke" transform="matrix(.23 0 0 .23 342.5 71.523)" d="m50 0 14.833 32.158L100 36.327 74 60.371l6.902 34.735L50 77.808 19.099 95.106 26 60.37 0 36.327l35.167-4.17z"/><path style="stroke:#8562e7;stroke-width:0;stroke-dasharray:none;stroke-linecap:butt;stroke-dashoffset:0;stroke-linejoin:miter;stroke-miterlimit:4;fill:#e5e5e5;fill-rule:nonzero;opacity:1" vector-effect="non-scaling-stroke" transform="matrix(.23 0 0 .23 373.54 71.244)" d="m50 0 14.833 32.158L100 36.327 74 60.371l6.902 34.735L50 77.808 19.099 95.106 26 60.37 0 36.327l35.167-4.17z"/><path style="stroke:#9017bb;stroke-width:0;stroke-dasharray:none;stroke-linecap:butt;stroke-dashoffset:0;stroke-linejoin:miter;stroke-miterlimit:4;fill:#e5e5e5;fill-rule:nonzero;opacity:1" vector-effect="non-scaling-stroke" transform="matrix(2.72 0 0 .15 368.64 115.93)" d="M-43.22-43.22h86.44v86.44h-86.44z"/><path style="stroke:#9017bb;stroke-width:0;stroke-dasharray:none;stroke-linecap:butt;stroke-dashoffset:0;stroke-linejoin:miter;stroke-miterlimit:4;fill:#e5e5e5;fill-rule:nonzero;opacity:1" vector-effect="non-scaling-stroke" transform="matrix(2.72 0 0 .15 369.23 131.62)" d="M-43.22-43.22h86.44v86.44h-86.44z"/><path style="stroke:#9017bb;stroke-width:0;stroke-dasharray:none;stroke-linecap:butt;stroke-dashoffset:0;stroke-linejoin:miter;stroke-miterlimit:4;fill:#e5e5e5;fill-rule:nonzero;opacity:1" vector-effect="non-scaling-stroke" transform="matrix(.69 0 0 .15 281.35 160.22)" d="M-43.22-43.22h86.44v86.44h-86.44z"/><path style="stroke:#9017bb;stroke-width:0;stroke-dasharray:none;stroke-linecap:butt;stroke-dashoffset:0;stroke-linejoin:miter;stroke-miterlimit:4;fill:#e5e5e5;fill-rule:nonzero;opacity:1" vector-effect="non-scaling-stroke" transform="matrix(1.21 0 0 .35 303.76 200.88)" d="M-43.22-43.22h86.44v86.44h-86.44z"/></svg>
