<svg
	className="wc-block-grid__no-products-image"
	xmlns="http://www.w3.org/2000/svg"
	viewBox="0 0 217.15 153.67"
>
	<g id="Layer_2" data-name="Layer 2">
		<g id="Layer_1-2" data-name="Layer 1">
			<path
				d="M59.09 32.38h.26l.27.07h.16l.19.08h.07l.18.1h.07l.17.1.15.1.21.18.19.19.18.19.15.2.14.22.11.21.1.22.08.22.06.22.05.21v1.43l-.06.33-.08.31-.09.31-.1.3-.11.3-.12.3-.14.3-.08.17.12.15.1.16.07.14.06.15.08.26v.08l.2-.13.2-.13.21-.13.21-.12.23-.12.25-.11.27-.1.2-.07h1.47l.25.08.14.06.12.06.14.08.12.09.12.1.11.1.11.11.1.12.09.11.08.13.12.24.08.22V42l-.06.31-.07.31-.09.29-.09.29v.07l.16-.09.27-.15.3-.15.31-.13.19-.08.2-.06.21-.06H69.25l.18.06.57.39.19.09.18.1h.05l.18.13.17.14.15.16.14.16v.06l.11.16.09.17v.07l.07.16.06.16v.08l.06.23v1.29H74.18l.39.07.38.07h.16l.31-.07.37-.07H80.21l.44.06.45.06.46.06.46.08.46.08.47.09.48.09.47.1.48.1.49.11.49.11.49.12.48.13.49.12.49.14.49.13.49.14.49.15.48.14.48.16.48.15.48.16.47.16.47.16.46.16.45.17.45.17.44.17.44.17.43.18.41.17.42.18.4.18.39.18.38.18.37.18.36.19.35.19.33.18.33.19.32.19.3.19.29.2.29.2.26.21.26.22.25.22.23.24.2.22.18.22.18.23.16.23.16.23.14.24.13.24.12.25.12.24.36.43.1.25.09.24.09.26.08.25.07.25.07.26.06.25v.26l.05.25v.77l.06.5v2.34l.22.38.22.39.22.4.2.4.19.42.18.41.07.19H104.4l.25.07.22.09.2.11.17.12.15.13.1.09.15.16.09.1.13.19.06.08.12.22.09.19.12.28.08.27.67.43.06.25V72.3l.08.22.07.22.06.22.05.21V74h.05l.34-.44.18-.22.15-.31.11-.22.1-.19.1-.16.15-.23.19-.29.23-.34.27-.38.16-.21.16-.21.17-.22.18-.21.19-.22.2-.22.21-.22.22-.21.24-.22.24-.21.27-.2.28-.18.16-.1.17-.09.16-.09.18-.08.19-.07.2-.07.22-.06h1.54l.27.07.26.09.25.12.25.13.23.15.21.17.18.16.16.17.13.14.13.16.13.15.12.15.12.17.11.16.11.16.1.17.1.18.18.33.16.35.15.36.13.36.12.36.1.37.09.37.09.38.06.38.06.38V77.28l.18.07.2.11.17.12.17.13.13.13.13.14.09.12.09.13v.05l.13.23v.05l.08.2.05.14.06.23v3l-.06.44-.06.43-.09.43-.09.43-.1.42-.11.42-.12.42-.13.42-.15.41-.15.41-.15.4-.17.41-.17.4-.18.4-.19.39-.19.39-.2.39-.2.39-.21.38-.21.38-.23.38.15.33-.23.37-.23.37-.24.37-.24.36-.24.37-.12.17-.21.84-.12.44-.11.42-.11.39-.12.38-.13.38-.13.38-.15.38-.17.4-.18.43-.21.46-.49 1.11-.1.2-.12.22-.13.23-.14.23-.15.22-.16.24-.16.23-.19.23-.21.24-.23.23-.16.14-.17.13-.13.09-.18.1h-.05l-.13.07-.14.05-.19.06h-1.24l-.2-.06-.21-.08-.12-.06-.39.54-.37.52-.06.09-.06.1-.07.1-.06.11-.14.27-.14.29-.14.32-.16.34-.17.35-.18.38-.2.38-.11.21-.13.21-.12.2-.14.21-.15.21-.16.21-.17.2-.19.21-.2.2-.22.19-.11.09-.12.29-.22.5-.22.49-.22.48-.23.48-.23.47-.24.46-.24.45-.25.45-.26.44-.26.43-.26.42-.27.41-.28.41-.29.39-.29.37-.3.37-.31.36-.32.33-.16.17-.17.17-.17.16-.17.15-.18.15-.17.15-.18.14-.19.14-.19.14-.2.14-.16.09-.19.1-.11.06-.2.07-.24.07H96.59l-.16-.05-.15-.06-.15-.07-.14-.08-.14-.09-.12-.09-.1-.1-.18-.19-.14-.17-.14-.25v-.07l-.06-.13V116l-.06-.21v-.09.31l-.07.3-.07.29-.08.28-.09.28-.1.27-.12.27-.13.27-.11.18-.11.16-.21.25-.2.24-.76.2-.21.21-.23.2-.23.18-.24.18-.24.16-.25.15-.25.13-.26.13-.26.11-.26.11-.26.09-.27.08-.26.08-.27.06h-.27L89 121H85.48l-.26-.06-.26-.06-.25-.07-.23.15-.23.15-.23.14-.24.13-.25.13-.25.12-.25.11-.26.1-.26.1-.28.08L82 122l-.23.05H79.1l-.32.16-.33.15-.33.14-.34.12-.35.11-.35.09H75.29L75 123h-.23l-.23-.06-.24-.07-.24-.1-.24-.12-.21-.14-.23-.15-.19-.15h-.31l-.4.08-.41.07H70.16l-.24-.05-.24-.07-.22-.08-.22-.09-.21-.1-.2-.11-.2-.12-.18-.13-.17-.14-.16-.14-.15-.15-.15-.15-.13-.16-.13-.15-.11-.16-.11-.16-.11-.17-.09-.16-.09-.17-.09-.17-.08-.18-.13-.32-.12-.34-.11-.34-.09-.34-.07-.34-.06-.34v-3l.06-.32.06-.31.08-.32.1-.31.12-.31.13-.29.09-.18.07-.12.13-.21.05-.06.16-.19.11-.13.18-.17.17-.16.18-.15.19-.15.19-.15v-1h-.64l-.23-.06-.22-.07-.25-.11-.23-.15-.15-.12-.15-.14-.13-.15-.17-.23-.13-.24-.08-.22-.07-.23v-1.8l.06-.25.06-.25.08-.24.09-.24.09-.22.1-.23.11-.22v-.11l-.24-.14-.53-.32-.52-.33-.52-.34-.54-.34-.53-.36-.53-.36-.54-.37-.53-.38-.54-.38-.54-.39-.54-.4-.53-.4-.53-.4-.53-.41-.77-.4-.52-.42-.53-.45-.51-.42-.49-.42-.51-.43-.5-.43-.51-.43-.48-.43-.47-.42-.47-.43-.46-.43-.14-.12-.14.07-.33.15-.34.15-.35.14-.35.14-.36.14-.37.12-.37.12-.37.11-.38.11-.38.1-.39.09-.38.08-.38.07H44.62l-.21-.05-.2-.06-.21-.07-.22-.08-.23-.11-.17-.1-.2-.13h-.08l-.21-.17-.07-.06-.11-.1-.1-.11-.05-.07-.1-.12-.09-.13v-.07l-.09-.14-.12-.19v-.07l-.07-.15-.09-.16v-1.73H41.1l-.21-.08-.2-.08-.2-.1-.19-.12-.17-.12-.13-.22-.1-.09-.14-.15-.13-.16-.12-.2-.11-.21-.09-.22-.06-.19v-1.21l.08-.21.11-.23v-.08l.11-.18.1-.14.15-.19.13-.17.14-.16.28-.3.29-.31.28-.31.29-.31.13-.15.12-.15.12-.14.1-.15.09-.12.08-.12v-1.41l.15-.41.07-.16.09-.16.09-.14.1-.13.09-.1.1-.11.12-.11.12-.09h.06l.2-.13.09-.2.11-.26.11-.27.11-.27.1-.28.1-.28.1-.28.1-.29.06-.2h-.73l-.19-.3-.25-.11-.24-.15-.21-.17-.2-.2-.17-.22-.07-.12h-1.12l-.25-.08-.24-.1-.22-.13-.19-.14-.18-.16-.15-.16-.14-.19-.12-.21-.1-.22-.07-.22v-1.47l-.1-.13v.07l-.14.19-.15.2-.15.18-.15.18-.18.19-.18.17-.21.18-.15.12-.17.12h-.1l-.22.12h-.08l-.24.09-.12.05h-1.5l-.22-.07-.22-.09-.21-.13-.21-.16-.38-.24-.17-.2-.14-.2-.2-.33-.06-.14-.05-.15v-1.5l.05-.23.06-.21.07-.2.06-.19.08-.19.13-.32.16-.33.15-.31.16-.29.27-.5.22-.41.16-.29.18-.31.17-.31.19-.29.18-.3.18-.29.37-.56.36-.55.36-.54.36-.53.34-.51.83-1.28v-.08l.28-.52.38-.71.12-.24v-.26L39.1 63l-.1-.44v-.47H38.42l-.3-.09-.21-.1-.21-.11-.15-.11-.15-.12-.11-.1-.1-.11-.15-.2-.08-.11-.12-.2-.08-.18-.07-.15-.08-.22-.08-.2-.06-.2-.07-.21-.12-.4-.1-.42-.18-.54-.07-.41V54.07l.06-.43.06-.43.08-.43.08-.43v-.07l-.08-.11L36 52l-.1-.19-.09-.19-.08-.19-.07-.19v-.38l-.05-.18V47.92l.05-.33.06-.31.06-.32.07-.31.07-.3.07-.3.09-.29.08-.29.16-.53.16-.5.16-.45.26-.73.1-.26.11-.27.12-.28.12-.27.13-.28.14-.29.15-.29.15-.29.16-.29.17-.3.17-.3.19-.3.18-.3.2-.31.2-.3.2-.31.21-.31.22-.31.22-.3.23-.31.24-.31.24-.31.24-.31.25-.31.26-.3.26-.3.26-.31.27-.29.27-.3.29-.29.28-.29.28-.28.29-.28.3-.28.3-.27.3-.26.31-.26.32-.25.31-.25.32-.23.32-.23.33-.23.34-.22.33-.2.34-.2.35-.19.35-.18.35-.17.36-.15.36-.14.37-.14.37-.11.38-.1.39-.09.39-.07.37-.06h2.65l.2.05.2.06.24.07.13.06.22.1.23.13.21.17.2.19.18.21v.05l.13.21v.05l.11.21v.05l.07.2.05.15V32.77h.07l.28-.16.17-.08.16-.07.17-.07.18-.06.19-.06H58.71zm35.32 81.21v.06-.16zm-35-19.65l.09.07v-.09zm-1.28-5v.64h.19l-.11-.58v-.14zm23-3.16l.11.3.09.3.08.3.07.31.06.31.06.32v.13l.05-.15v-1.46l-.06-.14-.1-.07-.1-.07-.09-.06-.09-.06-.08-.06h-.07zm-39-.15zm22.64-3.34l-.1.27-.09.27-.09.26-.08.26-.07.26-.08.26-.07.26-.06.25-.06.26-.05.25L64 85l.13-.15.24-.29v-.14l.11-.55.12-.55.12-.54.13-.51h-.08zm-15.21 1.8l-.06.19h.14v-.39zm64.21-4.66l-.48.53-.32.36V82l.2-.4.21-.38.2-.37.07-.12V79.15zm.08-5.19l-.1.31-.12.3-.12.3-.1.23.13.06.24.14.22.18.18.18V74.55l-.05-.25V74zM97.48 63h.4l-.12-.07-.11-.07-.11-.05H97.37zm-2.1-7.23l.06.36.07.29v.2l.11.42.2.73v.15h1.53l.27.05h.24l-.05-.14v-.25l-.06-.12-.06-.12-.06-.1-.06-.1-.06-.1-.1-.04-.06-.09-.07-.08-.07-.08-.06-.06-.09-.08-.11-.1-.15-.11-.16-.11-.19-.13-.21-.16-.24-.11-.24-.14-.27-.15-.16-.09zm-28.73.51v.17l.08.28v.13h.41l-.12-.19-.21-.33-.11-.18zm6.92-1.19H71.65l.13.14.13.14.14.13.14.14.13.13.15.13.14.13.15.12.15.13.15.11.11.09.12-.18.12-.17.12-.17.12-.16.14-.15.13-.16.15-.15.15-.15.17-.15.1-.09h-.92zm13.3-2.74l.37.28h.08l.08.06.12.07.15.08.17.09.16.07.45.22.5.24.54.26.56.28.25.13v-.78l-.3-.08-.44-.15-.47-.12-.45-.14-.45-.15-.45-.13-.45-.14-.43-.12zM53.69 41.68l-.36.35-.37.36-.37.37-.37.37-.36.37-.37.38-.36.38-.35.39-.36.39-.35.39-.35.4-.34.39-.08.09-.13.25-.43.83-.88 1.68-.1.21.1-.14.15-.21.2-.26.51-.62 1.4-1.7.55-.68.33-.45.38-.53.38-.52.4-.52.41-.53.43-.52.42-.51.23-.26.22-.26.09-.1.1-.14zM184.71 15.46h.35l.21.06.24.11.15.08.14.09.15.11.15.14.11.11.1.12.11.15.15.24.12.24.11.26.08.26.06.26v.32l.33-.23.47-.33.49-.35.26-.18.26-.17.27-.18.28-.16.29-.17.29-.16.31-.15.31-.14.32-.12.19-.07.18-.06.18-.05h2.29l.22.07.22.07.23.09.22.1.2.12.21.13.19.13.2.16.18.15.17.18.3.31.13.19.13.2.1.19.09.2.08.19.07.19.05.2.05.18V20.48l-.05.34-.05.35-.07.34-.08.35-.09.35-.1.35-.1.36-.11.35-.12.37-.07.19h1.43l.2.06h.1l.22.09h.09l.22.11h.08l.22.14.07.05.17.13.15-.06.2-.07h1.01l.27.07.26.09.24.12.2.13.18.15.15.14.12.15.08.12.08.13.12.22.05.12v.13l.07.21.05.19.07.41.05.4V29.86l-.05.41-.06.41-.07.42-.08.41-.09.42-.09.42-.1.43-.11.43-.11.42-.13.44-.12.43-.14.43-.13.44-.15.44-.14.43-.15.45-.16.44-.32.88-.33.88-.35.88-.35.88-.35.88-.36.86-.36.85-.7 1.67-.67 1.6-.31.76-.3.74-.29.71-.25.68-.25.65-.1.3-.1.3-.1.28-.08.28-.08.25v.11l-.05.34-.07.58-.1.73-.13.88-.15 1-.17 1-.09.54-.1.54-.1.54-.11.54-.11.53-.11.52-.13.51-.12.5-.13.47-.14.45-.07.24-.08.21-.07.21-.09.22-.09.2-.1.21-.1.21-.12.21-.15.22-.11.15-.13.16-.07.07-.15.14v.54l-.05.32-.05.33-.06.32-.07.33-.08.32-.08.33-.1.32.15.5-.11.33-.11.32-.12.32-.12.32-.13.33-.14.32-.13.32-.15.32-.15.32-.15.31-.16.32-.15.32-.17.32-.17.32-.35.62-.36.62-.37.62-.17.26-.11.56-.06.32-.08.36-.19.82-.49 2-.27 1.13-.14.58-.14.6-.14.61-.13.62-.13.62v.25H186.49l.21.06h.1l.22.08h.09l.23.11h.09l.22.14.08.06.2.17.07.06.19.2.06.07.15.21.05.07.13.21v.09l.1.2v.09l.07.2.06.19.06.27v1.88l-.05.2-.06.21v.19l-.07.2-.07.19-.08.21-.15.36-.17.37-.19.36-.19.35-.2.34-.21.34-.22.32-.22.31-.23.29-.24.29-.24.26-.14.14-.14.13-.14.12-.15.12-.17.13-.18.12-.21.12-.15.07-.19.08h-.06l-.25.07h-1.31l-.23-.07-.22-.1-.21-.12-.2-.15-.16-.14-.15-.17-.09-.12-.08-.12-.12-.21-.15-.29-.13-.29-.11-.29-.09-.29-.07-.29-.06-.29V88.29l-.31.18-.36.21-.36.21-.37.23-.37.24-.37.24-.27.18V90.36l-.05.2v.2L178 91l-.06.19-.07.2-.08.18-.08.18-.09.18-.09.18-.09.17-.1.17-.11.17-.11.17-.21.31-.24.31-.25.29-.27.29-.27.27-.29.27-.18.16v.14l-.06.19-.07.18-.06.18-.08.16-.08.17-.09.16-.1.17-.18.27-.2.27-.21.25-.22.24-.22.21-.23.21-.22.19-.24.19-.23.17-.23.17-.23.15-.23.14-.23.15-.23.13-.43.24-.42.22-.38.19-.34.16-.27.13-.1.05-.13.07-.37.2-.43.24-.25.14-.26.12-.28.13-.28.12-.2.06-.2.06h-1.2l-.28-.07-.26-.1-.21-.12-.2-.13-.18-.16-.17-.19-.16-.2-.11-.2-.07.06-.22.17-.24.13-.25.11-.27.08H162.45l-.26-.09-.25-.12-.23-.15-.18-.15-.22.64-.26.79-.14.4-.14.39-.15.39-.15.4-.15.38-.16.39-.18.37-.18.38-.19.36-.2.35-.12.19-.11.18-.12.17-.13.17-.13.17-.14.17-.14.16-.18.18-.21.2-.18.14-.11.07-.19.12-.12.07h-.14l-.19.07h-1.23l-.22-.07-.23-.09-.21-.13-.2-.14-.16-.15-.15-.15-.13-.17-.13-.2-.11-.23-.06-.17v-.17l-.05-.24v-1.29l.05-.23.07-.24.06-.24.15-.47-.11-.14-.16-.25-.15-.26-.1-.25-.1-.24-.09-.24-.08-.24-.08-.25-.08-.26-.07-.28-.15-.56-.15-.62-.06-.23h-.13v1.53l-.08.22-.1.22-.15.24-.18.22-.21.19-.22.17-.24.14-.27.11-.27.07h-.22v.22l-.05.28v.27l-.06.27-.08.27-.08.28-.1.27-.12.27-.13.27-.16.27-.17.27-.21.26-.22.24-.15.14-.15.11-.14.12-.16.1-.16.1-.18.09-.26.13-.28.1-.29.09-.29.07H145.84l-.26-.05-.25-.06-.25-.07-.24-.08-.23-.09-.23-.09-.23-.09-.22-.11-.22-.11-.22-.11-.2-.12-.21-.12-.21-.14-.2-.13-.2-.13-.2-.14-.2-.14-.36-.29-.37-.31-.36-.3-.35-.32-.33-.32-.25-.25-.16.07-.18.08-.19.06-.19.06h-1.71l-.2-.07-.42-.11-.19-.09-.2-.1-.19-.11-.18-.12-.18-.12-.17-.13-.16-.14-.16-.14-.15-.15-.14-.15-.14-.15-.13-.16-.12-.16-.12-.17-.11-.17-.11-.16-.1-.18-.09-.17-.09-.18v-.06l-.1.09-.21.16-.24.15-.25.1-.26.09-.27.05H132.12l-.26-.08-.25-.12-.23-.14-.22-.17-.19-.19-.17-.22-.14-.24-.11-.25-.08-.26-.05-.27v-.55l.05-.26.09-.27.11-.25.14-.23.19-.33.16-.16v-.23l.05-.1v-.12l.05-.12.11-.3.11-.34.11-.36.12-.38.25-.85.25-.9.13-.47.14-.47.14-.47.15-.47.16-.47.17-.47.18-.46.1-.23.1-.23.1-.23.11-.22.11-.22.12-.22.13-.22.14-.21.15-.21.15-.21.17-.21.19-.2.2-.2.22-.19.25-.18.18-.12.22-.35.24-.33.24-.33.26-.31.27-.31.27-.29.15-.15.15-.14.16-.14.34-.21.16-.13.16-.13.17-.12.17-.12.18-.11.18-.1.18-.11.19-.1v-.75l.06-.39.06-.39.07-.39.07-.4.08-.41.09-.4.09-.41.1-.42.11-.41.11-.41.11-.42.12-.41.13-.41.14-.42.13-.4.15-.4.15-.41.15-.39.16-.39.16-.38.18-.38.17-.37.19-.36.19-.36.2-.35.06-.09.12-.28.13-.29.14-.28.15-.28.15-.27.15-.28.17-.26.18-.26.18-.26.19-.25.2-.24.21-.24.25-.26.14-.12.17-.15.12-.08.11-.07.22-.12h.14l.15-.06h1.1l.24.06.24.08.22.1.21.12.18.14.15.14.13.15.1.13.08.13h.11l.22.1.21.12.21.12.19.13.1.08.08-.07.2-.17.21-.17.2-.16.22-.16.22-.15.22-.15.22-.14.23-.13.24-.13.23-.12.25-.12.24-.11.25-.1.26-.09.26-.09.26-.08.26-.07.27-.06H155.93l-.11-.17-.1-.18-.06-.14-.08-.21-.06-.18-.07-.24v-.21l-.05-.21v-.66l-.06-.42V61.74l.06-.42.06-.42.07-.42.09-.42.09-.41.11-.41.11-.42.12-.4.13-.41.14-.41.14-.4.15-.41.15-.39.16-.4.17-.4.13-.31-.22-.89-.19-.87-.17-.89-.07-.36-.11.11-.19.2-.2.21-.21.21-.2.2-.22.19-.21.19-.22.19-.22.18-.22.18-.23.17-.24.16-.24.15-.25.15-.25.15-.26.13-.27.12-.28.12-.28.1-.23.07h-1.52l-.17-.05-.18-.07-.18-.09-.19-.11-.16-.13-.16-.14-.14-.15-.12-.16-.22-.26-.07-.15-.07-.16-.05-.14v-1.21l-.08-.32v-2.31l.05-.32.06-.32.07-.31.07-.32.09-.31.09-.31.1-.32.11-.31.11-.31v-.14l-.11-.15-.11-.14-.1-.16-.1-.15-.1-.16-.36-.28-.08-.16-.07-.17-.08-.16-.06-.17-.06-.18-.1-.33-.08-.34v-2.31l.07-.32.07-.31.08-.31.09-.3.11-.3.11-.29.12-.29.13-.29.13-.28.14-.28.15-.28.15-.28.17-.26.16-.27.17-.27.18-.26.17-.26.18-.25.19-.25.19-.25.2-.25.19-.24.2-.23.2-.24.2-.23.21-.22.2-.23.21-.22.41-.41.41-.4.42-.38.41-.36.41-.34.39-.31.21-.15.2-.14.19-.14.15-.1v-.38l.07-.88.09-.88.09-.87.11-.84.1-.87.08-.58.09-.65.11-.71.07-.37.07-.39.08-.4.08-.4.1-.4.1-.41.1-.42.12-.41.13-.41.14-.42.15-.4.16-.41.18-.39.1-.21.1-.2.1-.19.11-.2.12-.19.12-.19.13-.19.13-.18.14-.19.15-.17.16-.18.17-.17.18-.17.19-.16.2-.16.21-.15.22-.13.22-.12.28-.13.25-.11.26-.11.26-.1.26-.09.26-.07.26-.07.26-.05.26-.05h.81l.11-.07.16-.09.17-.09.17-.09.18-.08.18-.07.19-.07.19-.07.2-.06h.2l.2-.05h1.96l.22.06.22.06.22.08.21.09.22.1.2.11.21.11.12.09.19-.13.41-.26.26-.15.27-.16.28-.17.31-.16.32-.18.34-.17.36-.18.37-.18.37-.17.39-.17.4-.17.4-.15.42-.15.41-.13.42-.12.22-.06.22-.05h.22l.22-.05h2.14l.26.06.27.07.26.09.27.11.27.14.25.16.26.19.24.21.15.17.13.15.14.17.18.28.15.28.12.27.08.23.08.21v.14h.08l.28-.09.28-.07.27-.08.27-.07.27-.05.27-.06h1.35zM144.1 96.35l-.13.24-.14.24-.13.22-.14.23v.14l-.11.3-.1.28V99.78l.09.09.25.25.27.24.26.23.26.22.28.21.12.09.13.09.13.09.13.08.12.08.13.07.11.07.12.06.11.06.11.05h.63v-.81.05-2.77l-.05-.52-.05-.52v-.3l-.83-.26-1.06-.33-.31-.09zm37.11-14.41l-.13.17-.31.38-.33.42-.35.45-.22.27.21-.11.4-.18.39-.18.15-.07v-.22l.12-.67v-.27zm-9.32 1l-.48.6h.88V82.59zm-8-3.33v.5l.21.11.12.08.18.14.16.13.15.14.18.2.18.22.15.22.13.22.12.22.1.23.09.21.08.22.07.23.06.21.06.22v.11l.28-.35.71-.89.2-.26h-.32l-.19-.06-.2-.06-.19-.08-.22-.12-.19-.09-.18-.1-.18-.11-.17-.12-.18-.12-.16-.13-.17-.14-.15-.14-.23-.23-.21-.23-.21-.25-.07-.09zm-6-6.75l-.21.16-.21.16-.21.16-.19.15-.36.3-.31.28-.26.23-.18.17-.08.09-.09.1-.09.11-.1.11-.09.14-.1.14-.1.16-.11.16-.1.17-.1.18-.11.19-.1.2-.1.21-.1.22-.09.21-.1.24-.1.23-.09.23.36-.44.51-.64.51-.64.5-.64 1-1.29.5-.64.34-.44zm4.66 3.53l-.11.35-.13.36v.1l.14.06.14.07.14.08-.06-.24-.06-.29V76.2zm11-3.4l-.12.19-.39.61-.27.41-.31.45-.33.49-.23.32.2-.15.15-.12.08-.1.8-1 .43-.58.07-.54zm-4.61-1.24l-.13.16-.12.18-.13.17-.12.17-.11.17-.11.17-.11.17.31-.43.29-.43.28-.42zm-2.69-4.06h-.37v.56l.1-.13.37-.42h-.15zm-5.09-1.56l-.13.24-.14.23-.15.23h.58V66zm9.84-3.41l-.08.25-.09.25-.09.25-.1.24-.09.24.18-.14.28-.2V62.4zm14.37-10l-.44 1-.12.28h.12l.22.08.21.11.15.1v-2zM169 46.35l-.13.19-.13.19-.12.2-.26.41-.24.41-.23.43-.23.43-.22.44-.22.45-.22.5-.2.46-.2.47-.14.34.52-.79v-.06l.14-.3.19-.42.1-.23.12-.23.12-.23.13-.23.14-.24.16-.23.17-.24.19-.24.21-.23.15-.16.06-.28.11-.53.05-.28v-.06zM160.57 48l.06.45v.16-.77zM174 36.88l-.69.42-.69.43-.71.44-1.41.85-.58.35.24-.07h1.49l.17.06h.08l.16.07.17.08h.06l.15.09.15.1.06.05.12.1.11.11.06.06.14.17.28-.74.34-.9.34-.9.36-.89.12-.29zm21-7.65l-.22.18-.23.19-.23.21-.32.19-.24.23-.25.25-.25.25-.26.27-.26.28-.26.29-.09.1-.07.14-.37.68-.35.66-.34.62-.32.57v.99l-.09.6-.1.69-.09.71v2.15-.1l.3-.73.32-.73.62-1.44.63-1.43.63-1.42.63-1.44.1-.2.14-.29.17-.36.21-.44.22-.49.11-.26.11-.26.11-.27.11-.27.06-.17zM165.64 27l-.28.4-.27.42-.28.42-.26.42-.27.42-.26.43-.26.43-.09.17.09.1.17-.25.39-.6.39-.6.38-.62.18-.3.18-.31.18-.31.06-.1v-.22zM179 28.6l.12-.13zm13.12-8.31l-.17.1-.18.1-.19.12-.2.13-.21.13-.17.13-.45.32-.09.06v2.26l-.05.23v.24l-.05.24-.06.24-.13.47-.15.47-.15.48-.17.48-.18.48-.19.48-.19.47-.2.46v.06l.07.12.12-.22.35-.7.35-.72.34-.71.34-.71.31-.7.3-.7.14-.33.13-.34.13-.33.12-.32.11-.32.11-.3.09-.3.1-.28.08-.28.07-.26.06-.25.05-.23v-.32zm-15-2.76h-.69l-.29.08-.28.09-.29.11-.3.12-.31.12-.31.14-.3.13-.29.15-.3.14-.28.15-.27.14-.25.14-.24.14-.22.13-.19.11-.32.2h-.05V21.28l.22-.22.25-.23.25-.24.26-.22.26-.23.26-.22.26-.23.27-.21.27-.21.28-.21.48-.06.29-.2.28-.19.29-.2.29-.18.29-.18.3-.19.3-.17h.09v-.14zM136 111.51h1.49l.19.05.18.06.19.07.18.07.18.08.17.09.17.1.16.1.16.11.16.12.14.12.14.13.13.13.13.14.12.14.11.14.1.15.12.17.15.28.12-.09.36-.26.36-.23.19-.12.19-.11.19-.11.19-.1.2-.1.21-.09.21-.08.22-.09.24-.06.25-.06H145.29l.11.05.1.06h.07l.1.08.1.07.09.08.06.06.09.08.08.08.08.1v.06l.07.09.06.09.06.1.05.07.05.09v.1l.06.14.08.19.07.2.05.2v1.74l-.07.2-.07.2-.08.19-.09.18-.09.16-.11.17-.1.15-.12.15.01.61-.13.15-.23.22-.25.22-.26.19-.26.19-.27.16-.27.15-.28.15-.28.14-.29.12-.29.13-.3.11-.31.1-.31.11-.31.09-.32.1-.32.08-.32.09-.33.08-.34.07-.33.07-.33.07-.09.1-.15.19-.41.55-.17.22-.08.09-.1.12-.12.11-.12.1-.13.09-.14.08-.14.08-.14.06H136.32l-.15-.06-.14-.07-.14-.07-.13-.09-.13-.09-.12-.11-.11-.1-.11-.12-.1-.13-.08-.13-.08-.14-.07-.14v-.07h-3.34l-.25-.06-.26-.06-.25-.09-.27-.1-.19-.09h-.18l-.18-.1-.27-.19-.2-.16-.1.09-.11.08-.11.07-.12.08-.12.06-.15.07-.19.08-.2.07-.19.07H125.66l-.34-.06-.33-.07h-.12l-.29.1-.29.1-.31.08-.3.08-.31.07-.32.06-.32.06H120.55l-.14-.06-.13-.07-.13-.07-.12-.09H118.54l-.14-.06-.14-.08H118l-.32-.05-.33-.06h-.39l-.2-.07-.22-.08-.24-.11-.16-.08h-.09l-.09-.06h-.07l-.11-.08-.1-.08-.07-.06-.08-.06-.08-.08-.07-.08v-.06l-.09-.11-.08-.11-.06-.09v-.08l-.06-.11-.05-.12V117.53l.06-.13.06-.11.07-.11.06-.09.07-.09.1-.12.16-.18.15-.14.18-.14v-.75l.07-.17.12-.26.14-.22.13-.2.14-.19.11-.13v-.99l.06-.29.07-.28.09-.29.1-.27.1-.27.12-.27.13-.26.13-.25.14-.25.15-.24.16-.24.17-.23.16-.23.18-.22.19-.22.18-.21.2-.21.2-.2.2-.2.21-.19.22-.19.22-.18.22-.17.23-.17.23-.16.24-.16.24-.15.25-.14.25-.14.25-.12.26-.12.27-.11.26-.1.27-.1.28-.08.28-.07.29-.06H126.15l.14.07.14.08.12.08h.05l.1.08.09.07.1.08.08.09v.05l.1.11.09.12.08.12v.06l.07.11.05.12.06.12V109.23h.54l.26.05.27.07.19.07H128.99l.12.06.13.07.08.06.12.09.12.09.08.06.08.07.07.07.08.08.06.07.06.08.07.08.06.09.05.07.08.14.08.14v.08l.06.13.05.14v1.66h.06l.29-.12.29-.1.3-.1.31-.1.31-.09.31-.08.32-.07.33-.06.33-.05h1.73zm-.05 4.71l-.12.17-.14.16-.13.14-.1.09h.98v-.49H136z"
				fill="gray"
			/>
			<path d="M28.81 11.93l.24.05.27.08.25.12.23.14.22.17.19.2.15.19.13.2.1.22.06.14v1.32l-.08.28-.12.27v.35l-.05.52-.08.9v.53l-.05.52V31.56l-.1 1.49-.1 1.48-.1 1.48-.11 1.48-.11 1.48-.11 1.46L29.1 42l-.1 1.44V89.5l-.05 2.13-.06 2.12-.07 2.13-.45 2.12-.08 2.12-.09 2.12-.1 2.13-.1 2.13-.12 2.12-.14 2.11-.14 2.12-.18 2.15-.17 2.1v.29l-.08.29-.12.27-.15.26-.19.23-.21.21-.24.17-.26.15-.27.11-.29.07H24.55l-.28-.08-.28-.12-.25-.15-.23-.18-.21-.22-.18-.24-.14-.26-.11-.27-.07-.29v-.59l.17-2.09.16-2.09.14-2.1.13-2.09.13-2.1.11-2.09.1-2.11.09-2.1.09-2.11.07-2.1.01-2.15v-2.11l.05-2.11V43.18l.09-1.49.1-1.49.11-1.48.11-1.48.54-1.47.1-1.46.1-1.47.09-1.46V22.29l.05-1.11V18.39l.05-.56v-.55l.05-.54.08-.89.05-.56.06-.55v-.53l.05-.27v-.19l.06-.2.1-.26.1-.2.13-.19.14-.17.21-.21.25-.18.27-.15.28-.1.24-.05h.49zm-2.49 2.85v.09-.1z" />
			<path d="M168.84 0H169.89l.33.06.32.06.32.07.31.08.3.08.29.08.3.09.54.17.54.18.51.16.5.16.24.07.24.06.23.06.22.06.23.05h.66l.72.08.73.08.74.07.74.07h.74l.75.05H199.08l.8.06.79.07H201.78l.36.05h.35l.35.06.34.07.34.07.33.06.32.08.32.08.31.08.31.09.3.1.3.1L206 4l.29.1.28.12.28.12.27.11.26.13.27.13.25.14.25.14.25.15.23.14.24.16.23.16.22.16.22.17.21.17.2.18.2.18.2.18.19.19.18.2.18.19.17.2.16.21.16.21.16.21.15.21.14.22.13.21.14.23.12.22.12.23.11.23.11.23.1.23.1.24.09.23.09.24.05.23.08.24.07.24.07.24.07.25.06.24.06.26.1.49.09.5.08.51.06.5.06.52V22l-.07 1.12-.07 1.13-.08 1.14-.07 1.14-.06 1.15v22.07l.05 1.87v1.87l.06 1.88.06 1.87.06 1.87.07 1.87.07 1.87.09 1.88.08 1.87.09 1.87.09 1.87.1 1.86.1 1.87.11 1.86.12 1.87.11 1.86.13 1.85.13 1.86.13 1.85.15 1.85.14 1.84.15 1.84.22 2.67.22 2.66.1 1.32.1 1.32.09 1.32.09 1.33.08 1.33.07 1.33.06 1.34.06 1.34V118.78l-.06.36-.07.37-.08.35-.06.2-.06.18-.06.18-.07.19-.07.18-.08.19-.09.18-.1.19-.11.18-.12.18-.12.18-.14.17-.14.17-.16.17-.15.14-.15.13-.16.12-.16.12-.18.11-.17.1-.18.08-.18.09-.18.06-.19.06H211.35l-.29-.05-.27-.07-.26-.06-.24-.08-.24-.08-.22-.08.17.01-.4-.16-.38-.16-.34-.14-.32-.12h-10.19l-.44.06-.43.06-.42.06-.42.07-.39.08-.4.07-.38.09-.36.09-.35.09-.34.1-.55.17-.54.18-.55.18-.55.2-.55.21-.55.22-.55.22-.55.22-.56.24-.56.23-1.13.49-1.13.49-1.15.5-.57.25-.59.24-.58.24-.6.24-.59.24-.6.23-.61.22-.61.21-.61.21-.63.19-.62.19-.64.18-.63.15-.33.09-.33.07-.32.07-.33.06-.33.06-.33.06-.53.09-.53.07-.52.07-.53.06-.52.05h-7.57l-1-.07-1-.08-1-.09-1-.09-.95-.11-1-.11-1.89-.23-1.88-.23-.94-.1-.81-.17-.93-.1-.92-.09-.93-.07h-6.49l-7 .42-7 .41-3.52.21-3.51.19-3.52.19-3.52.17-1.76.09-1.76.08-1.76.07-1.76.07-1.76.07-1.77.06-1.76.06-1.77.06-1.76.05H82.41l-1.48-.06-1.47-.06-1.46-.18-1.46-.08-2.92-.17-2.9-.17-1.45-.09-1.45-.07-1.45-.06-1.44-.06-1.43-.06H52.14l-.7.05-.7.06-.71.06-.69.07-.7.08-.7.08-.7.09-.69.1-.7.1-.7.11-.69.12-.69.12-.7.14-.7.15-.52.11-.77.14-1 .19-1.17.21-1.3.23-.7.11-.72.12-.73.11-.75.12-.76.1-.76.11-.76.1-.77.09-.75.09-.74.07-.73.06-.7.06H24.74l-.28-.06-.28-.06-.29-.09-.3-.12-.29-.14-.19-.11-.17-.12-.17-.14-.1-.09-.17-.17-.06-.06-.16-.21-.05-.08-.12-.19-.05-.08-.09-.19-.08-.17-.08-.26-.07-.25v-2.17l.05-.43.06-.43.07-.43.08-.44.09-.45.1-.45.1-.45.1-.45.22-.89.22-.87.21-.84.19-.78.09-.36.07-.34.07-.31.05-.28V119.18l.11-.39.17-.35.23-.32.29-.27.33-.23.36-.16.39-.09h.78l.38.11.36.17.32.23.27.29.22.33.16.36.1.38v1.1l-.05.36-.06.36-.07.38-.08.38-.08.39-.1.4-.2.82-.22.85-.21.86-.21.86-.1.41-.09.41-.08.39-.08.38-.07.37-.05.33-.05.32v.21h2.27l.64-.05.66-.06.69-.07.71-.08.72-.09.73-.09.73-.1.73-.11.72-.11.72-.11.69-.11.67-.11 1.28-.22 1.13-.2.95-.18.78-.13.5-.1.73-.15.74-.14.74-.14.75-.13.74-.12.75-.11.74-.1.75-.1.74-.08.74-.09.75-.07.74-.06.74-.06.74-.05H65.11l1.47.06 1.46.07 1.46.08 1.47.09 2.91.16 2.91.18 1.44.07 1.45.08 1.45.07 1.44.06h18.05l1.76-.05h1.74l1.76-.06 1.75-.07 1.75-.06 1.75-.08 1.75-.07 1.75-.08 1.75-.08 3.51-.18 3.5-.19 3.5-.19 3.51-.2 7-.42 7-.42h7.08l1 .08 1 .09 1 .1 1 .11 1 .11 1.89.22 1.88.23.94.11.93.1.93.09.92.09.92.08.93.06h7.33l.46-.06.47-.06.46-.07.46-.07h.27l.28-.06h.27l.28-.06.27-.06.27-.06.55-.14.55-.15.54-.17.55-.17.55-.18.55-.2.55-.2.55-.21.55-.21.56-.23.55-.23.56-.23.56-.24 1.13-.49 1.14-.5 1.14-.49.58-.25.59-.24.58-.24.59-.24.6-.23.6-.23.6-.21.62-.22.61-.2.63-.19.43-.12.44-.12.46-.11.46-.11.47-.09.47-.09.49-.08.49-.08.49-.06.5-.06.5-.06H207.41l.45.05h.45l.46.06h.26l.26.06.26.07.24.07.24.08.23.09.41.16.39.16.36.15.34.14h.64v-4.03l-.05-.58V105.6l-.06-1.3-.08-1.3-.07-1.3-.09-1.31-.09-1.3-.1-1.31-.1-1.31-.21-2.63-.23-2.67-.32-1.92-.14-1.85-.14-1.86-.14-1.87-.13-1.87-.12-1.87-.12-1.87-.12-1.87-.09-1.88-.1-1.88-.1-1.88-.1-1.88-.09-1.88-.08-1.89-.07-1.9-.07-1.88-.08-1.89-.06-1.88-.06-1.88-.06-1.89v-3.76L209 48V27.49l.07-1.19.07-1.17.08-1.15.07-1.12.07-1.1.06-1.07V15l-.05-.4-.06-.39-.06-.38-.08-.36v-.68l-.05-.16v-.16l-.06-.16-.05-.15-.06-.15-.06-.15-.07-.14-.07-.14-.06-.14-.07-.13-.08-.14-.07-.12-.08-.13-.08-.12-.08-.13-.09-.11-.09-.12-.09-.12-.1-.1-.1-.11-.1-.11-.11-.11-.1-.1-.45-.11-.12-.1-.12-.1-.12-.09-.13-.1-.14-.1-.14-.09L206 9l-.15-.09-.15-.08-.17-.09-.17-.09-.17-.08-.19-.07-.19-.08-.2-.08-.19-.07-.21-.07-.21-.08-.22-.07-.2-.05-.23-.07-.25-.06-.25-.06h-.79l-.28-.05h-1.52l-.75-.06-.75-.06h-7.67L188 6.93H180.15l-.79-.06-.79-.06-.78-.07-.79-.34-.78-.08-.79-.1h-.68l-.33-.07-.36-.15-.32-.08-.31-.08-.3-.08-.29-.09-.56-.17-.54-.18-.52-.16-.49-.16-.23-.07-.23-.07h-.23l-.22-.06h-.21l-.22-.05h-1.93l-.28.07-.28.06-.29.09-.29.09L166 5l-.29.11-.3.11-.29.13-.3.13-.31.14-.3.15-.31.15-.31.16-.3.16-.63.35-.64.36-.64.38-.65.38-.65.38-.67.37-.34.2-.34.18-.35.18-.35.18-.35.17-.36.17-.53.24-.53.24-.54.23-.54.23-.55.22-.56.23-.57.21-.57.22-.57.21-.58.2-.59.21-.59.2-.6.19-.6.2-.6.19-.61.18-.61.18-.62.18-.62.17-.63.17-.62.17-.63.16-.63.16-.64.15-.64.15-.64.14-.64.14-.64.13-.63.16-.64.12-.65.13-.65.11-.65.12-.65.11-.65.1-.65.1-.65.09-.65.09-.65.09-.65.08-.65.07-.65.07-.64.06-.65.07h-.64l-.64.05h-10.42l-.57-.05-1-.11-1-.1-1-.11-1-.09-2-.24-1.94-.24-1.93-.24-1-.11-1-.12-1-.1-1-.1-1-.1-.94-.09-.94-.08-.94-.07-.94-.06-.94-.05-.93-.05H90.33l-.48.05h-.47l-.47.06-.47.06-.44.28-.47.07-.47.07-.46.08-.94.16-.94.17-.94.18-.95.2-.94.2-1 .21-1 .21-1.89.44-1.93.45-1 .23-1 .21-1 .22-1 .22-1 .2-1 .2-1 .19-1 .17-1 .17-.51.07-.5.08-.51.07-.5.07-.51.06-.51.06-.51.05h-8.08l-.44.01-.44-.06-.44-.06-.44-.07-.43-.07-.44-.09-.43-.08-.44-.09-.43-.1-.43-.1-.42-.11-.43-.11-.42-.11-.42-.12-.39-.13-.85-.22-.83-.26-.81-.27-.81-.27-.81-.28-.79-.27-1.58-.55-.78-.26-.74-.28-.77-.25-.75-.24-.76-.22-.37-.11-.38-.1-.36-.1-.37-.1-.37-.08-.37-.09-.36-.08-.36-.07-.36-.07L35 14l-.36-.05-.35-.06H30.46l-.38-.08-.37-.15-.33-.21-.3-.27-.24-.31-.19-.35-.12-.52-.05-.39v-.4l.08-.38.15-.37.21-.34.27-.29.31-.24.35-.19.37-.12.4-.05H34.08l.43.05.42.06.43.06.42.07.43.07.42.08.42.09.42.09.41.1.42.1.41.11.41.11.42.11.41.12.81.24.81.25.81.27.81.26.8.28 1.58.55.79.27.79.27.78.26.77.25.77.25.78.23.38.11.38.11.38.1.38.1.38.09.38.09.38.09.37.08.38.08.37.07.37.06.37.06.38.05H63.2l.47-.05h.47l.47-.06.47-.06.47-.06.47-.07.46-.07 1-.16 1-.17.94-.18 1-.19 1-.19 1-.21 1-.21 1-.22 1-.22 1.58-.43 1.93-.45 1-.22 1-.21 1-.21 1-.2 1-.19 1-.18 1-.17.5-.08.5-.08.52-.07.52-.08.51-.06.52-.06h.51l.52-.05h8.07l1 .05h1l1 .07 1 .07 1 .09 1 .09 1 .1 1 .1 1 .12 1 .11 1 .11 1.94.24 1.93.24 1.94.24 1 .11 1 .12 1 .1 1 .1.09-.12H129.9l.61-.06.62-.06.61-.07.61-.07.62-.08.62-.08.61-.08.62-.09.62-.1.62-.1.61-.1.62-.11.62-.11.62-.12.61-.12.62-.12.61-.13.61-.13.61-.14.61-.14.6-.15.6-.15.6-.15.59-.16.59-.15.59-.17.59-.17.58-.17.57-.17.57-.18.57-.18.56-.19.56-.19.55-.19.54-.19.54-.2.53-.2.53-.2.52-.21.51-.21.51-.31.5-.21.49-.22.47-.22.29-.14.29-.14.3-.15.3-.16.3-.16.3-.16.62-.36.64-.37.64-.38.67-.38.67-.38.69-.39.36-.19.36-.18.36-.18.36-.18.38-.17.37-.17.39-.16.38-.16.4-.14.4-.14.41-.12.41-.12.42-.11.43-.09.4-.07h1.87z" />
			<path d="M54.8 93.38H56.24l.06.06.06.05h.05l.06.08v.05l.05.08v.18l.05.09v.12L57 95v2.2l-.05.07v.12l-.05.07v.12h-.06v.06h-.05l-.06.06h-.13l-.06.05h-.07L56 98H55.26l-.05.08-.21.29-.22.32-.22.34-.23.35-.23.36-.22.37-.21.36-.2.35-.19.34-.18.32-.1.52V103.65l-.05.06v.06l-.06.06h-.05l-.13.12-.12.09H49.51l-.05-.06V101.93l.05-.23.06-.2.12-.32.14-.33.16-.34.17-.34.19-.37.2-.38.22-.39.23-.41.25-.41.25-.41.25-.41.27-.41.26-.39.26-.38.27-.38.26-.35L52 95l.26-.31.15-.16.15-.14.15-.15.17-.15.2-.16.15-.09H54.73zm-2.18 2.76zM59.26 98.49H60.76v.05l.05.06V101.25l-.29.29-.27.3-.28.31-.29.32-.6.68-.61.7-.62.7-.32.36-.32.35-.32.33-.33.34-.33.32-.31.28h-2.91v-.05h-.05V103.77h.05v-.05h.05l.26-.23.24-.24.26-.26.27-.28.28-.3.28-.32.59-.67.61-.7.62-.7.33-.36.32-.35.32-.35.31-.32v-.05H59.22zM75.17 70.39h1.03l.09.06.09.06.09.06.08.07.09.07.07.08.08.08.06.08.07.08.07.09.05.09v.48h.09l.74.27.41.16.22.09.22.09.23.1.22.11.23.12.25.15.24.16.2.16.3.23.24.21.54.42.55.41.56.42.58.42.59.43 1.2.87.6.44.61.45.6.46.59.47.3.24.3.24.29.25.28.25.29.25.27.26.28.27.26.25.08.07.07.08.06.09.07.09.06.09V83.12l-.06.09-.06.09-.07.09-.06.08-.08.08-.08.07.15.38-.08.06-.09.06-.09.06-.1.06H86.87l-.1-.06-.09-.06-.08-.05-.09-.07h-.08l-.08-.07-.23-.23-.22-.21-.23-.21-.24-.28-.24-.2-.25-.22-.26-.21-.25-.21-.54-.42-.56-.42-.56-.43-.59-.42-1.18-.84-.6-.43-.6-.44-.6-.44-.59-.46-.61-.46-.29-.24-.25-.2h-.07l-.09-.05h-.11l-.19-.2h-.15l-.33-.13-.36-.13-.39-.14-.39-.15-.22-.16-.22-.09-.21-.1-.22-.11-.23-.13-.28-.12-.17-.13-.08-.06-.08-.07-.16-.14-.15-.16-.14-.17-.14-.18-.08-.12-.05-.1v-2.36l.07-.13.12-.19.1-.12.06-.08.08-.08.12-.36.08-.08.08-.07.09-.07h.09l.09-.06.09-.06h1.15zM76.89 74z" />
			<path d="M86 66.85h.96l.1.05.09.06.1.06.09.07.08.07.08.07.08.08.08.09.07.08.06.09.06.09.06.1.05.1V70.16l-.06.2-.11.29-.13.25-.13.24-.13.23-.15.22-.15.22-.16.21-.16.22-.18.22-.36.43-.39.45-.41.46-.44.47-.45.49-.94 1-1 1-.49.51-.48.52-.47.52-.46.51-.43.5-.42.5-.19.24-.2.25-.18.23-.17.23-.17.23-.15.21-.15.22-.13.2-.12.2-.11.18-.1.18-.08.16-.07.15-.06.14v.22L78 83V84l-.06.1v.1l-.07.09-.06.09-.07.09-.08.08-.08.08-.08.08-.09.07-.08.06L77 85h-.09l-.1.06H74.7l-.1-.06h-.1l-.09-.07-.09-.07-.08-.06-.09-.08-.08-.08-.07-.1v-.09l-.07-.08-.06-.1-.06-.09V82.3l-.21-.3.08-.34.1-.32.12-.34.1-.3.14-.3.15-.29.16-.3.17-.28.17-.29L75 79l.2-.29.2-.28.2-.28.21-.29.22-.28.22-.28.25-.3.46-.56.48-.56.5-.55.5-.55.5-.54.51-.54 1-1 .92-1 .43-.45.41-.44.37-.41.33-.39.29-.35.13-.15.11-.15.09-.13.09-.12v-.94l.05-.1.06-.09.06-.09.07-.09.07-.09.07-.08.09-.08.08-.07.08-.08.09-.06.1-.06.09-.06H86zm-2.22 3v.08-.1zM78.15 37.5H79.11l.08.05H79.34l.07.05.08.06.07.05.07.06.06.06.07.07.06.06.05.07.06.07V39.99l-.06.3-.07.39-.07.41-.06.35v.97H77v.29-1.56l.07-.46.09-.47.08-.41v-.27.09-.47h.71zM82.85 34h1.04l.07.05H84.17l.06.05.07.06.06.05.06.06.06.06.06.06v.69l.05.06V37.55l-.07.13v.07H81.95v-.16l-.07-.16-.09-.22v-.36l-.06-.28v-1.42h1.01zm2.24 2zm-3.9 0zM91 29.88H92.62l.07.05h.07l.07.05.07.06.06.05.06.06.06.06.06.06.06.07.05.06v2.57H89.8l-.09-.13v-.14.4V31.2H91zm1.83 1zM107.63 27.67h.75l.12.05h.11l.12.06.11.07.1.07.1.07.1.09.09.09.09.09.08.1.08.1.06.11.07.11.06.11V30H105.68h1.98zm-1.55 4.11h.06-.06zm2.84-3.54v.05l-.06-.07-.08-.06zM118.94 31.44H119.97l.08.05h.08l.08.05.07.05.07.06.07.06.06.06.07.06.06.07.06.07V32.19l.05.07.06.09v2.44H118.23V32.8h1.29zm1 4.49zm-3.09-1.19l.06.11v-.14zm4-.27v.14-.15zM125.89 40.14H127.27l.06.05h.06v.06h.06v.06l.05.06V45h-2.61v-3.22l.09-.22.08-.13v-.05H125.89zm1.58 3.86l.09-.08zM129.19 50.33H130.2l.08.05H130.43l.06.05h.08l.06.06.07.06.06.06.06.06.06.07.05.07.06.06v.22l.21.2.24.22.06.07.06.06.06.07.05.07.06.07v.07l.05.08v2.12H129.82l-.23-.22-.27-.25-.17-.18-.19-.2-.19-.24-.14-.2V51.61h1.04zM133.18 59.81H134.64v.05h.05v.11l.15.06.21.1h.6V62.41h-1.76l-.14-.07h-.21l-.17-.06-.15-.06-.12-.05h-.06v-.05l-.08-.14-.1-.21-.12-.29v-1.76h.9zM139.17 66.64H141.72V68.73h-2.1l-.3-.07-.3-.1-.28-.09-.29-.11-.18-.08h-.06V67.94h.91zm-.17 4.54h-.1zm1.5-4.18zM147.86 71.68h2.52v2.14h-1.26l-.32-.05H148.23l-.2-.06-.22-.08-.16-.06H146.83V73h.97zm1.58 3.86l.12-.1zm.22-.28zM159.58 66.62H160.98l.07.05.06.06.06.06.06.06.05.06.06.07v.07l.05.07v1.93l-.13.13-.14.14-.15.16-.15.18-.15.17-.28.33-.22.26-.09.1H158.63V69.1l.07-.1.17-.2.19-.22.2-.23.23-.23.23-.24.24-.23.14-.13.15-.12.15-.12.17-.12.2-.13.14-.08H161.03 159h.58zM166.26 60.72H167.63v.05h.05V65h-2.8v-1.61l.06-.23.07-.2.06-.19.08-.19.12-.29.09-.17.1-.18.06-.11h1.01zm1.8 3.62v-.06zm-3.2-2.25l-.1.07zm.34-.15zM172.35 52.78h.69l.22.08h.12l.11.05h.1l.11.06.1.07.1.07.09.07.09.08.09.08.08.09.08.1.06.1.07.1.06.1.06.1v1h-2.57l-.2-.07H170.63 172.51z" />
			<path
				d="M184.61 30.87l.35.05.34.07.33.09.33.12.32.14.32.15.31.18.29.2.29.21.28.23.14.13.13.13.12.13.12.14.11.14.12.16.17.28.16.3.16.28.11.3.09.3.08.31.05.31v2.42l-.05.3v.3l-.06.3-.06.3-.07.3-.08.3-.09.3-.09.3-.1.29-.1.3-.11.29-.12.29-.12.29-.13.3-.13.28-.14.28-.14.28-.15.28-.15.27-.16.27-.16.26-.17.26-.18.25-.17.25-.19.24-.19.24-.2.24-.2.22-.21.22-.22.21-.22.21-.23.19-.25.19-.25.18-.26.17-.27.15-.29.15-.3.13-.32.11-.33.09-.32.06H180.5l-.17-.06-.18-.07-.17-.07-.16-.09-.17-.09-.15-.1-.15-.1-.16-.14-.16-.15-.05-.05-.05-.05-.09-.1-.07-.08-.06-.08-.14-.18-.17-.28-.15-.27-.25-.42-.1-.28-.09-.28-.06-.28-.05-.26v-2.4l-.06-.27v-3.3l.05-.28.07-.27.06-.27.07-.27.08-.27.09-.26.09-.26.1-.27.1-.26.11-.26.12-.25.13-.25.13-.25.13-.24.15-.24.15-.25.16-.23.16-.23.18-.22.23-.2.18-.21.2-.21.21-.2.22-.19.19-.19.24-.18.25-.16.27-.15.27-.14.29-.13.29-.11.39-.13.32-.07.33-.05h1.01zm-1 9.68zm0-1.35h-.06l-.06.06-.07.07-.07.08-.08.09-.07.1-.08.11-.07.11-.05.18v.07V40l.13-.16.28-.38.18-.22z"
				fill="#fff"
			/>
			<path
				d="M186.45 31.58H188.2l.14-.05.19-.06.19-.06.19-.05h2.06l.2.06.2.08.19.07.19.09.19.1.18.1.18.11.17.12.17.12.15.12.15.11.14.13.14.13.13.14.13.14.12.15.12.14.1.15.11.16.1.15.09.17.09.16.07.16.08.17.06.17.06.17.06.18.09.33.06.34v1.61l.08.26V39.97l-.05.26-.08.41-.06.26-.1.42-.07.24-.07.25-.08.26-.08.26-.1.27-.1.28-.11.28-.12.29-.12.29-.14.29-.15.29-.16.29-.17.29-.19.29-.2.28-.21.28-.23.27-.14.15-.13.13-.14.13-.14.13-.15.12-.16.13-.17.11-.17.11-.18.11-.19.1-.2.09-.2.09-.21.07-.22.07-.23.05h-1.9l-.23-.06-.23-.07-.23-.09-.19-.08-.19-.09-.18-.1-.18-.1-.17-.11-.05.09-.16-.12-.15-.13-.14-.14-.14-.14-.14-.14-.13-.14L185 46l-.12-.16-.11-.15h-.55l-.18-.05-.17-.06-.17-.06-.18-.07-.17-.08-.18-.08-.22-.13-.24-.13-.21-.15-.21-.15-.21-.17-.19-.18-.18-.18-.17-.19-.16-.2-.14-.2-.14-.21-.1-.4-.11-.21-.1-.22-.09-.22-.09-.22-.06-.22-.07-.22-.05-.22v-2.68l.06-.4.07-.4.08-.38.1-.39.1-.37.12-.36.12-.36.13-.34.13-.35.14-.32.15-.32.15-.3.15-.3.15-.28.17-.27.16-.26.15-.22.17-.22.19-.22.21-.21.17-.14.05-.05h.06l.1-.06h.18l.1-.05h.5l.19-.06.29-.07h1.77zM31 113.17h.82l.1.05.11.06.1.06.1.06.1.08.1.08.09.08.08.09.07.1.08.09.06.1.07.1.05.1v1.98l-.06.29.13.51-.08.28-.09.27-.1.25-.11.26-.12.24-.12.25-.13.23-.14.22-.14.23v1.48l-.05.16-.09.24-.09.21-.09.2-.11.2-.11.2-.13.22-.28.44-.33.52-.29.42.06.11.06.11.05.1v.38l.1-.07.21-.11.24-.11.16-.06H33.57l.1.06.09.06h.07l.08.06.09.07.07.06.07.06.07.07.08.07.06.08.07.07.06.09.06.09.06.09v.1l.05.09V126.92l.07.08.08.11.07.11.07.11.06.12.06.13v1.56l-.05.13v.12l-.06.12-.07.12-.06.09-.06.09-.07.09-.07.08-.1.1-.15.15-.16.13-.31.26-.37.29-.44.34-.48.36-.53.38-.55.4-.56.39-.56.39-.56.37-.53.34-.26.17-.25.14-.24.15-.24.13-.24.12-.25.12-.27.12-.21.06h-.98l-.11.06-.71.37-.68.35-.62.31-.3.14-.28.13-.26.11-.26.1-.27.1-.29.09h-1.48l-.12-.05-.11-.05-.11-.06.22.51-.1-.07-.1-.09-.09-.08-.09-.09-.08-.1-.09-.1-.07-.11-.07-.11-.06-.12-.05-.12v-.11l-.05-.13v-.21H18.81l-.1-.06-.11-.06-.09-.07-.1-.07-.31-.3-.09-.08-.08-.09-.08-.1-.08-.1-.07-.1-.06-.11-.06-.11-.05-.11V132.22l.07-.13.13-.21.18-.24.19-.2.17-.18.29-.28.27-.25.11-.1.07-.08.37-.48.41-.51.4-.49.4-.49.42-.5.23-.27-.07-.1h-.51l-.12-.05-.11-.06-.12-.06-.11-.07-.1-.08-.1-.08-.1-.09-.08-.09-.09-.1-.08-.1-.07-.11-.07-.11-.06-.11-.05-.12-.05-.12v-1.62l.05-.11.06-.11.05-.1.07-.1.07-.1.07-.09.07-.08.08-.08.09-.08.1-.09.17-.13.32-.22.4-.27.47-.32.55-.35.36-.23.23-.21.25-.23.25-.21.48-.4.19-.18.16-.15h.06v-.05l.4-.52.31-.41.23-.33.21-.3.23-.33.27-.39.34-.49.45-.62.34-.46.35-.46.37-.47.2-.24.18-.22.32-.39.22-.25.13-.15.14-.15.36-.67.19-.18.23-.17.12-.08H31z"
				fill="#fff"
			/>
			<path d="M44 97.74h1l.19.05h.39l.18.07.19.07.35.14.35.16.34.17.34.19.33.2.33.22.32.21.32.24.31.24.31.25.31.26.3.26.3.27.29.28.29.28.29.29.28.29.29.3.27.3.28.3.26.3.26.31.26.31.25.31.25.3.24.31.24.3.22.31.23.3.22.31.41.58.38.56.34.55.17.27.16.26.14.25.14.25.13.24.12.23.12.22.1.23.1.22.08.24.08.23.08.27v1.6l-.07.18-.11.27-.12.23-.12.21-.14.2-.13.19-.14.19-.15.18-.15.18-.16.19-.32.35-.36.37-.38.36-.39.38-.41.38-.43.38-.45.39-.44.39-.46.39-.47.39-.93.76-.91.74-.86.7-.8.63-.7.57-.58.46-.23.19-.18.15-.12.11-.07.06-.74.74-.77.76-.77.76-.78.75-.77.75-.78.75-1.56 1.48-1.56 1.47-1.57 1.47-3.13 2.92-3.13 2.91-1.56 1.45-1.55 1.46-1.68 1.71-.76.74-.77.73-.76.74-.76.74-.75.75-.75.74-.14.15-.14.14-.28.31-.28.32-.27.32-.27.34-.27.34-.55.71-.54.72-.28.36-.29.36-.29.36-.31.35-.31.34-.17.18-.17.17-.18.16-.17.17-.19.16-.19.16-.19.15-.21.15-.21.15-.22.13-.22.14-.23.12-.24.12-.25.11-.26.09-.26.09-.27.08-.28.06-.28.05h-1.76l-.3-.05-.29-.06-.3-.07-.3-.08-.3-.1-.29-.11-.3-.12-.3-.13-.3-.15-.2-.1-.19-.1-.19-.11-.18-.12-.18-.11-.18-.14-.33-.24-.32-.26-.32-.26-.3-.27-.21-.24-.28-.28-.27-.27-.26-.28-.25-.27-.47-.51-.47-.49-.36-.41-.34-.41-.33-.4-.3-.39-.29-.39-.27-.38-.26-.37-.24-.37-.23-.36-.2-.36-.18-.36-.18-.36-.16-.35-.15-.35-.12-.36-.11-.35-.09-.36L.1 142v-2.12l.07-.34.09-.33.1-.32.12-.31.14-.3.12-.28.16-.28.17-.27.18-.26.18-.25.19-.23.2-.23.2-.23.2-.22.21-.22.22-.21.21-.2.23-.21.44-.4.47-.4.46-.41.48-.4.48-.41.49-.43.49-.45.24-.21.25-.24.24-.23.25-.24.24-.25.25-.25.24-.26.25-.27 2-2.16 1-1.09 1-1.09 1-1.08 1-1.08 1-1.07 1-1.06.53-.53.52-.53.53-.52.53-.53.53-.51.53-.52.54-.51.55-.52.55-.5.55-.51.56-.5.56-.49.57-.5.57-.49.58-.48.57-.47.58-.49.57-.48.55-.49.56-.5.56-.5.55-.51.55-.51.54-.52 1.1-1 1.12-1.06.56-.53.58-.53.58-.53.6-.54.42-.36.63-.53.76-.62.82-.67 1.42-1.23.47-.37.19-.14.09-.07.19-.11.19-.1.21-.07h.14v-.86l.06-.21.08-.2.1-.19.11-.18.14-.18.15-.15.13-.13.17-.15.18-.14.18-.14.2-.12.2-.12.2-.1.21-.1L42 98l.21-.07.21-.06.22-.06H44zm-.26 4.54h-.12l-.05.06-.17.14-.17.13-.19.1-.19.09-.21.07h-.09v.84l-.05.21-.08.19-.1.2-.11.19-.14.17-.15.16-.16.14-.14.1-.43.34-1.42 1.15-.79.65-.75.62-.6.5-.36.31-.55.49-.55.5-.55.52-.55.51-1.1 1-1.11 1.05-.56.53-.57.53-.57.53-.58.52-.59.53-.59.52-.62.52-.61.51-.56.47-.55.45-.54.47-.54.47-.53.47-.53.48-.53.48-.53.49-.52.49-.51.49-.52.5-.52.5-.51.5-.5.51-.51.51-.5.51-1 1-1 1.05-1 1.06-1 1.06-1 1.07-1 1.07-2 2.18-.28.3-.29.31-.28.3-.29.28-.29.28-.27.27-.29.26-.27.26-.54.48-.52.46-.51.43-.48.41-.45.38-.42.37-.39.35-.17.16-.17.16-.16.15-.14.15-.14.15-.12.14-.11.13-.1.13-.1.12-.07.11-.12.28-.06.1v1.33l.05.16.06.18.07.18.09.2.11.22.12.23.14.25.16.25.18.28.2.28.08.34.24.32.26.32.28.34.29.36.32.37.39.45.43.47.2.22.22.23.22.22.21.21.22.2.22.2.2.17.21.17.21.15.08.06.09.06.1.06.08.05h.16l.17.08.17.07.16.06.14.06H12.96l.09-.05.08-.06.09-.07.09-.07.09-.08.1-.08.1-.1.11-.09.1-.11.19-.19.22-.25.24-.27.24-.28.24-.31.25-.33.54-.7.57-.73.29-.39.32-.39.33-.39.34-.39.35-.39.19-.2.2-.19.76-.77.77-.76.77-.75.77-.75.78-.75.78-.74 1.55-1.48 1.5-1.43 1.56-1.47 3.15-2.89 3.13-2.91 1.56-1.46 1.6-1.49 1.54-1.47.77-.73.76-.74.77-.74.76-.75.75-.74.78-.78.18-.16.21-.19.23-.2.27-.21.6-.5.72-.56.79-.64.85-.68.89-.72.9-.74.44-.37.43-.37.43-.36.4-.36.39-.35.37-.34.34-.32.31-.31.27-.28.25-.26.06-.07-.16-.2-.11-.19-.11-.19-.08-.22-.13-.22-.3-.46-.33-.49-.36-.52-.19-.26-.19-.27-.21-.27-.21-.26-.2-.28-.22-.27-.22-.27-.23-.26-.23-.27-.28-.3-.24-.26-.23-.26-.24-.25-.24-.24-.24-.24-.24-.24-.24-.22-.24-.22-.24-.21-.23-.19-.24-.19-.22-.18-.23-.16-.22-.15-.21-.14-.2-.12-.2-.11-.18-.09-.17-.08-.18-.07H43.69z" />
			<path
				d="M91.67 51.26H92.51l.27.05.26.06.25.07.25.06.24.08.45.14.44.15.41.15.38.13.27.05.58.12h.26l.34.06.8.13.37.06h.18l.22.05h.14l.19.07.19.31.17.1.16.11.15.13.14.14.13.16.11.16h.32l.19.06h.05l.15.06.14.08.11.07.11.08h.06l.08.07.08.08.12.1.16.17.13.16.12.16.11.15.07.12h.07l1.14.77.45.3.21.15.12.1.16.14.14.16.12.15.11.16.09.18.08.18.05.18v.3l.14.08.34.19.19.12.18.11.19.13.36.44.2.14.21.18.2.2.14.16.13.16.12.16.11.18.1.19V61.96l-.06.18-.06.17-.08.17-.1.16-.11.15-.12.14-.12.13-.09.08v.18l.06.24.06.25v1.95l.07.25.1.39v.31l.08.48.09.65.1.72.05.38v2.54l-.07.18-.07.16.08.13.06.12.11.23.08.2.08.2.06.2v2.72l.59.38-.06.36-.07.36-.09.36-.1.35-.1.35-.11.34-.11.34-.12.33-.13.33-.07.15v1.41l-.06.2-.09.19-.1.18-.12.18-.13.15-.15.15-.16.14-.18.11-.18.1-.16.07-.23.37-.11.18-.17.31-.23.4-.14.23-.15.24-.16.24-.17.25-.19.25v.06l-.23.43-.26.46-.22.39-.22.34-.21.31-.22.32-.27.38-.08.13-.08.3-.1.3-.11.28-.12.28-.13.27-.14.28-.15.29-.1.18v.15l-.06.16-.07.16-.07.11-.07.11-.11.17-.18.23-.17.2-.09.15-.19.27-.18.27-.18.26-.18.25-.18.24-.18.23-.18.22-.2.21-.22.22-.25.21-.2.14-.12.07-.11.06L98 94l-.17.06-.43.44-.88.85-.07.14-.11.17-.13.17-.14.15-.23.22-.26.25-.32.3-.36.34-.38.34-.38.33-.2.17-.18.14-.69.54-.41.31-.44.33-.47.35-.5.36-.52.35-.27.18-.27.18-.28.18-.28.17-.28.17-.28.16-.29.16-.29.15-.3.15-.29.13-.31.13-.31.12-.31.11-.32.1-.33.08-.33.06h-1.32l-.2-.06h-.18l-.53.22-.55.23-.55.21-.29.1-.29.1-.29.09-.28.09-.29.08-.29.07-.29.07h-2.41l-.2-.07h-2.16l-.26-.06-.36-.12-.31-.11-.29-.12-.28-.12h-1.65l-.2-.07-.19-.08-.18-.1-.18-.12-.16-.13-.15-.15-.13-.16-.12-.17-.07-.12h-.14l-.69-.23-.43-.14-.25-.07-.26.14-.27.12-.27.09-.28.07h-1.97l-.21-.07-.21-.07-.2-.07-.19-.08-.18-.09-.19-.09-.18-.09-.17-.1-.18-.1-.33-.21-.32-.22-.32-.23-.3-.23-.3-.25-.29-.24-.28-.25-.3-.63-.21-.22-.12-.08h-.07l-.1-.07-.1-.08-.14-.12-.18-.18-.17-.18-.15-.17-.14-.18-.15-.19-.27-.37-.28-.39-.24-.35-.51-.7-.35-.48-.33-.46-.29-.43-.14-.2-.13-.15-.1-.18v-.07l-.08-.19-.06-.2-.05-.2v-.95l.06-.18.06-.18-.1-.2-.29-.6-.26-.52-.12-.27-.08-.26-.11-.27-.12-.27-.11-.28-.1-.29-.1-.28-.1-.29-.1-.32-.09-.33-.08-.32-.08-.35-.07-.32-.06-.32-.12-.62-.2-1.17L56 84l-.05-.27v-.25l-.08-.37-.12-.5v-1.58l-.07-.11-.11-.2-.09-.2-.07-.2-.06-.19V77.83l.06-.26.06-.26.07-.25.07-.25.08-.25.08-.24.08-.24.17-.44.17-.43.17-.39.15-.36.15-.31.21-.45.1-.19.09-.15v-.2l.05-.21V72.74l.07-.19.13-.26.11-.2.1-.18.1-.16.15-.22v-.33l.07-.2.07-.2.14-.36.16-.35.15-.34.16-.32.16-.31.15-.3.12-.22.15-.34.22-.46.07-.15v-.13l.12-.34.13-.34.14-.33.15-.32.16-.32.16-.32.18-.3.17-.31.18-.29.18-.29.18-.29.19-.28.07-.11v-.5l.05-.18v-.19l.05-.17.06-.18.44-.26.14-.31.15-.31.17-.3.17-.29.18-.28.19-.27.2-.26.2-.26.2-.25.21-.25.21-.24.22-.23.21-.23.42-.43.41-.41.4-.39.7-.66.29-.28.3-.29.44-.39.83-.7.84-.72.34-.27.25-.2.2-.13.17-.11.33-.2.35-.19.21-.1.2-.09.21-.09.16-.07.1-.06.19-.15.2-.13.19-.13.21-.13.2-.12.21-.12.21-.11.22-.11.23-.1.23-.09.24-.09.26-.08.27-.06.27-.05H76.64l.11.05H77.23l.3-.14V51l.06-.18.07-.16.07-.15.09-.15.1-.15.12-.14.12-.13.14-.12.14-.1.15-.1.16-.09.17-.07.16-.06H80.25l.27.05.25.06.25.07.46.13.44.13.19.05h3.55l.4.06h.65l.21.06.22.06.22.06.22.08.22.08.23.1.18.08.18.1.14.08.12.1.12.1.15.14.13.16h.16l.08-.07.17-.13.18-.11.19-.1.19-.07.21-.06H91.11zm-9.79 4.63l-.58.11-.58.08-.56.08-.51.06-.46.06H78.26l-.41.21L77 57l-.43.22-.2.11-.2.12-.38.2-.39.19-.4.16-.35.15-.31.14-.28.1-.27.1H72.15l-.37.26-.41.28-.38.26-.26.18-.18.16-.27.23-.27.23-.18.13-.11.19-.2.31-.21.32-.22.3-.21.3-.22.29-.22.28-.21.28-.43.52-.39.47-.07.1-.1.11-.2.29-.05.11-.09.21-.09.21-.18.39-.19.38-.19.37-.19.35-.35.63-.15.28-.14.26-.1.21-.08.18-.06.14-.07.21-.2.58-.23.66-.12.34-.13.35-.13.34-.14.32-.16.5-.1.19-.13.2-.1.14-.07.1-.08.1-.05.05-.15.14-.15.14h-.05l-.13.1-.14.08-.14.07h-.11v.15l.05.37V75.58l-.05.17-.07.17-.08.16-.1.15-.06.08v.26l-.13.51-.24 1-.11.45-.11.44-.09.43v.14l.15.13.14.15.13.17.11.17.1.19.09.19.05.2V82.63l-.05.12v.06l-.08.15-.08.14v.05l-.12.17-.13.15-.12.11-.12.1-.13.1-.15.09.12.4.08.25.08.24.08.22.1.25.07.2.09.25.17.52.17.55.07.28.08.28.06.27.06.26.06.28V89.25l.21.39.25.45.25.44.26.46.54.92.27.46.27.47.27.49.23.43.07.09.19.24.12.15.14.2v.06H67.7l.28.07.27.07.27.08.27.08.26.08.26.09.26.1.25.1.25.11.49.21.48.21.46.23.44.22.42.21.77.39.35.17.56.27.25.13.43.22.22.06.25.06.25.06h.2l.49-.1.52-.1.53-.09.47-.08h2l.19.08.19.09.14.09h.07l.68-.09h2.54l.71-.33.52-.24.1-.05.14-.09.07.19.41-.27.24-.15.25-.16.26-.15.17-.08.16-.08.19-.08.21-.07.11.04h1.73l.18-.12.42-.32.41-.31.39-.29.66-.52.12-.09.13-.1.3-.27.32-.29.24-.22.07-.12.1-.17.12-.15.11-.03.51-.51.44-.44.88-.84.42-.42.31-.31.1-.19.09-.17.11-.17.11-.17.19-.28.22-.28.23-.28.23-.26.23-.25.24-.24.23-.23.1-.09v-.69l.07-.25.07-.27.1-.29.13-.29.1-.19.1-.18.13-.2.1-.12.14-.16.09-.08.1-.08.12-.1.12-.08.14-.08.16-.24.21-.3.09-.13V82.82l.09-.27.09-.23.1-.22.1-.19.1-.19.11-.19.21-.33.21-.32.22-.31.2-.27.19-.25.29-.36.11-.14.14-.15.15-.14.17-.13.17-.11.19-.09.19-.08h.06l.11-.24v-7.85l-.06-.19-.1-.35-.09-.37-.08-.37-.07-.38-.06-.39v-2.38l-.06-.75v-.7l-.1-.22-.27-.52-.28-.53-.29-.53-.3-.53-.61-1.09-.31-.55-.1-.18-.14-.09-.45-.25-.45-.24-.29-.32-.48-.24-.52-.24-1-.49-.51-.25-.49-.27-.52-.27-.48-.29-.27-.15-.26-.16-.26-.16-.28-.17-.27-.14-.24-.18-.22-.16-.2-.19-.11-.11h-7.24l-.45-.06-.44-.07-.45-.23-.44-.09-.43-.11z"
				fill="#fff"
			/>
			<path d="M86.65 54.13h3.06l.34.05h.34l.33.06.34.06.33.07.33.06.33.08.33.08.33.09.32.09.33.1.32.1.32.11.31.12.32.12.31.13.3.13.31.14.3.14.3.15.3.16.29.17.29.16.29.18.28.18.28.19.27.2.27.2.27.21.26.22.25.22.25.23.25.24.24.24.23.25.23.26.22.26.22.27.21.28.21.29.19.29.19.29.19.31.17.31.17.32.16.32.16.33.14.34.14.34.13.35.12.35.12.36.1.37.1.37.09.38.08.38.09.45.07.46.07.46v.46l.05.47V73.31l-.05.48-.07.47-.08.48-.08.47-.09.48-.1.47-.1.47-.11.47-.11.48-.13.47-.13.47-.14.46-.14.47-.15.46-.15.46-.17.46-.16.46-.17.45-.19.45-.18.45-.19.45-.19.44-.2.44-.2.44-.22.43-.21.43-.22.43-.22.42-.23.42-.23.41-.24.41-.24.4-.25.4-.25.39-.25.39-.26.39-.27.38-.26.37-.27.36-.27.37-.29.35-.28.35-.28.34-.29.34-.29.32-.29.33-.3.31-.31.32L94 94l-.32.28-.32.27-.34.26-.35.25-.36.25-.37.23-.38.23-.38.22-.39.21-.4.2-.4.2-.41.19-.41.17-.42.18-.41.16-.43.16-.42.15-.43.14-.42.13-.43.12-.42.12-.42.1-.43.1-.42.08-.41.08-.41.06-.42.06H79l-.69-.06-.7-.07-.7-.09-.36-.05-.36-.06-.35-.06-.36-.07-.37-.06-.34-.08-.37-.08-.4-.08-.36-.09-.36-.09-.28-.09-.36-.1-.36-.1-.36-.11-.36-.12-.41-.14-.35-.13-.36-.13-.36-.13-.35-.14-.34-.15-.39-.12-.31-.2-.34-.16-.35-.13-.33-.18-.34-.18-.33-.18-.33-.2-.32-.2-.35-.21-.31-.21-.31-.22-.31-.23-.3-.24-.29-.24-.29-.25-.29-.26-.27-.27-.27-.27-.27-.28-.25-.29-.25-.3-.25-.31-.23-.31-.22-.33-.21-.32-.21-.35-.19-.34-.19-.37-.09-.32-.13-.34-.13-.35-.11-.35-.09-.35-.09-.36-.07-.37-.06-.36-.09-.37V80.48l.05-.41.06-.41.06-.42.06-.41.07-.41.17-.42.08-.42.16-.82.18-.81.19-.8.2-.8.2-.78.21-.76.21-.74.23-.72.21-.7.23-.65.22-.64.21-.6.22-.57.21-.53.21-.5.2-.44.18-.38.08-.16.07-.18.06-.19.08-.2.08-.23.08-.25.17-.54L65 64l.19-.6.09-.31.11-.32.1-.31.11-.31.13-.32.12-.32.14-.31.16-.31.17-.3.11-.17.1-.15.12-.16.12-.16.14-.16.15-.15.16-.16.19-.15.2-.14.22-.14.24-.12.17-.07h2l.26-.18.27-.17.26-.16.28-.16.27-.16.29-.15.28-.16.28-.14.29-.15.29-.14.3-.14.3-.14.3-.13.3-.14.31-.12.31-.13.31-.12.31-.12.32-.11.32-.12.32-.11.32-.1.32-.11.34-.1.65-.18.66-.18.34-.08.33-.08.34-.08.34-.07.34-.07.34-.06.34-.07.34-.06.35-.05h4.85zM86 58.67H82.46l-.29.05h-.59l-.29.05-.29.06-.29.07-.29.06-.29.07-.29.07-.57.16-.57.16-.28.08-.27.09-.28.09-.27.09-.27.1-.27.1-.27.1-.26.1-.26.11-.26.11-.26.1-.25.12-.25.11-.25.12-.24.12-.24.12-.23.12-.23.13-.23.12-.22.13-.22.13-.22.13-.21.13-.21.14-.2.13-.2.14-.19.14-.19.14-.18.14-.19.14-.17.14-.17.14-.16.14-.16.15-.15.14-.17.16-.13.13-.15.11-.16.1-.17.09-.17.08-.18.06h-.13l-.16.53-.18.59-.18.59-.1.31-.1.3-.11.3-.12.3-.13.3-.12.26-.16.33L68 69l-.18.41-.18.45-.19.5-.19.55-.2.58-.21.6-.2.64-.2.67-.2.69-.2.7-.18.72-.18.73-.18.74-.16.75-.15.75-.07.37-.07.37-.06.37-.05.37-.06.37-.05.36V86.17l.05.21v.19l.06.18v.16l.06.14.07.14.11.22.13.22.13.21.13.22.15.21.15.2.16.2.16.2.17.19.18.19.19.19.19.18.19.19.21.17.21.18.21.16.23.17.22.16.24.16.24.16.24.15.25.15.26.14.26.14.26.14.27.14.27.12.28.13.28.12.29.12.28.11.29.11.3.11.29.11.3.1.3.09.31.09.3.09.31.09.31.07.31.08.31.07.3.08.32.06.31.06.31.06.31.06H77.43l.62.08.61.07h4.54l.31-.06.33-.06.33-.08.33-.08.34-.09.34-.1.35-.11.34-.11.35-.12.34-.13.35-.13.33-.14.33-.14.33-.16.31-.15.32-.16.3-.17.29-.16.28-.17.27-.17.25-.17.24-.17.22-.17.21-.18.18-.16.19-.17.23-.24.25-.26.24-.27.24-.27.24-.28.24-.29.24-.29.24-.31.23-.3.23-.32.23-.32.23-.32.22-.34.22-.34.22-.34.22-.35.32-.26.21-.36.2-.36.2-.37.2-.37.19-.37.19-.38.19-.38.17-.39.18-.39.17-.39.17-.39.16-.4.16-.4.15-.39.15-.41.14-.4.14-.41.13-.41.13-.4.11-.41.12-.41.11-.41.1-.41.09-.41.09-.41.08-.4.08-.41.07-.41.07-.41V67.68l-.06-.36V67l-.09-.3v-.28l-.07-.26-.08-.26-.08-.25-.08-.24-.09-.24-.09-.24-.1-.23-.11-.22-.1-.21-.12-.22-.12-.2-.12-.2-.12-.2-.13-.19-.13-.19-.14-.18-.15-.17-.17-.18-.15-.17-.15-.16-.16-.21-.17-.15-.17-.16-.2-.11-.17-.14-.18-.14-.18-.14-.16-.16-.19-.14-.2-.12-.2-.12-.2-.12-.21-.12-.21-.11-.22-.11-.22-.1-.22-.06-.23-.09-.22-.1-.24-.09-.24-.09-.24-.08-.27-.09-.25-.08-.25-.07-.25-.07-.25-.06-.26-.07h-.26l-.25-.11h-.5l-.27-.05H86z" />
			<path d="M80.66 46.47h2.18l.53.05h.54l.53.07.52.07.52.07.52.27 1 .16 2 .33 1 .16.48.07.52.08.42.07.33.06.38.07.42.09.46.1.49.11.49.12.49.13.26.08.24.08.25.07.24.09.25.1.28.03.24.11.25.12.26.16.25.18.17.14h1.35l.33.06.33.06.32.07.32.08.31.08.31.09.31.09.3.1.3.11.29.11.29.12.29.12.28.13.28.13.27.15.27.14.26.15.27.16.25.16.26.17.24.17.25.17.23.18.24.19.23.19.22.19.22.2.22.2.22.21.2.21.2.21.2.22.2.22.19.22.19.23.18.23.18.23.17.24.17.24.16.24.16.25.16.25.15.25.15.25.14.25.14.26.14.26.14.26.12.26.13.27.12.27.12.27.11.27.11.28.11.27.1.28.1.27.1.29.18.56.17.57.15.57.14.58.13.58.12.59.1.58.09.59.08.6.07.84.06.59v5.33l-.06.58v.5l-.07.57-.09.57-.09.56-.1.56-.12.55-.12.55-.13.54-.14.53-.14.57-.15.46-.14.46-.15.45-.16.45-.16.45-.17.45-.18.45-.17.45-.19.44-.19.44-.2.44-.2.44-.21.44-.21.44-.22.43-.22.43-.23.43-.23.43-.24.42-.24.43-.25.41-.25.42-.26.41-.27.41-.26.41-.27.41-.28.4-.28.4-.29.4-.28.39-.3.39-.3.39-.3.38-.3.38-.32.38-.31.37-.32.37-.33.37-.32.36-.33.36-.32.36-.34.35-.34.35-.35.34-.35.34-.35.34-.36.32-.36.33-.37.32-.37.31-.37.31-.37.31-.38.3-.39.3-.38.29-.39.28-.39.28-.4.28-.4.27-.4.26-.4.26-.41.26-.41.25-.42.24-.41.23-.42.23-.42.23-.43.21-.43.22-.43.2-.43.2-.43.2-.45.18-.45.21-.44.17-.45.16-.44.16-.45.15-.45.15-.46.14-.46.13-.46.12-.45.12-.47.1-.46.11-.47.09-.47.08-.46.08-.48.07-.47.06H74.37l-.49-.07-.49-.07-.49-.08-.48-.09-.49-.1-.49-.11-.49-.13-.48-.13-.49-.14-.49-.15-.49-.16-.48-.17-.48-.19-.49-.19-.48-.2-.49-.21-.48-.23-.48-.23-.48-.24-.48-.26-.48-.27-.47-.27-.48-.29-.47-.3-.48-.31-.46-.32-.45-.32-.44-.34-.43-.34-.42-.35-.41-.36-.4-.37-.38-.38-.38-.38-.36-.39-.35-.39-.34-.41-.33-.41-.32-.41-.31-.43-.29-.43-.28-.43-.28-.44-.26-.45-.25-.45-.24-.5-.23-.45-.22-.47-.21-.47-.2-.47-.19-.48-.17-.48-.17-.49-.16-.49-.15-.49-.13-.49-.13-.5-.12-.5-.11-.5-.1-.51-.09-.51-.07-.51-.08-.51-.06-.52-.05-.51v-6.28l.06-.53.06-.52.07-.53.08-.53.09-.52.09-.52.1-.53.1-.52.12-.53.13-.52.12-.51.14-.52.14-.52.15-.52.16-.51.16-.51.17-.52.18-.51.18-.5.19-.5.19-.51.2-.49.21-.5.25-.5.22-.5.18-.5.24-.49.23-.48.25-.48.28-.45.25-.47.26-.47.27-.46.27-.46.28-.45.28-.45.29-.45.29-.44.3-.43.31-.44.3-.43.32-.42.32-.41.32-.42.33-.4.33-.4.35-.39.34-.39.35-.38.35-.38.36-.37.37-.36.36-.36.37-.35.38-.34.38-.34.39-.33.39-.32.39-.31.4-.31.4-.3.41-.29.41-.28.42-.27.42-.27.42-.25.43-.25.43-.24.44-.23.44-.22.44-.21.45-.2.45-.19.46-.18.46-.18.45-.15.29-.1.29-.09.3-.08.28-.08.29-.07.29-.07.29-.06.28-.06.3-.06H80.65zM79.7 51H77.25l-.22.05h-.44l-.22.05-.22.06-.21.05-.22.06-.22.07-.22.07-.36.13-.36.13-.37.15-.36.15-.35.16-.36.17-.36.18-.35.18-.36.2-.34.2-.35.22-.35.21-.34.23-.35.24-.34.24-.34.25-.33.26-.34.26-.32.27-.34.28-.32.29-.32.29-.32.3-.32.31-.31.32-.31.31-.31.66-.3.33-.31.34-.29.33-.29.35-.29.35-.29.36-.28.37-.28.37-.27.38-.27.38L63 62l-.26.39-.26.4-.25.4-.25.4-.24.41-.24.41-.23.42-.23.42-.22.42-.22.43-.21.43-.21.43-.2.44-.2.44-.19.44-.19.44-.18.45-.17.45-.17.45-.16.45-.16.46-.15.45-.15.46-.14.46-.13.45-.13.46-.12.47-.11.46-.11.46-.1.47-.1.46-.12.42-.08.47L57 77l-.06.46-.07.46V84.69l.06.44.06.43.06.42.08.43.08.42.09.42.1.41.1.42.12.4.11.41.14.39.13.4.15.39.15.39.16.38.16.38.18.37.19.37.19.37.2.36.21.35.22.35.22.34.23.34.24.34.26.32.24.27.27.32.27.31.29.31.29.3.31.3.32.29.32.29.33.28.34.27.36.27.36.26.38.26.4.26.41.26.4.24.41.23.4.23.41.22.4.2.41.2.4.19.41.18.4.17.41.16.41.15.4.14.4.14.41.12.4.12.41.11.4.1.4.09.4.09.4.07.41.07.4.06h5.94l.39-.06.39-.06.39-.07.4-.08.39-.08.38-.1.4-.09.38-.11.39-.11.38-.12.39-.12.38-.13.38-.13.38-.15.38-.14.38-.16.37-.16.38-.16.37-.18.37-.17.37-.19.37-.19.37-.19.36-.2.36-.21.37-.21.36-.22.35-.21.35-.23.36-.24.35-.23.35-.24.34-.25.34-.25.34-.26.34-.26.34-.27.33-.27.33-.27.33-.29.32-.28.33-.29.31-.29.32-.3.31-.3.31-.31.31-.31.3-.31.3-.31.3-.32.29-.33.29-.32.29-.33.28-.34.28-.34.27-.34.27-.34.27-.35.26-.35.27-.35.25-.36.25-.35.25-.37.24-.36.24-.37.24-.37.23-.37.22-.37.22-.37.22-.38.21-.38.21-.38.18-.36.2-.39.19-.39.19-.39.19-.39.17-.39.18-.39.17-.39.17-.4.15-.39.16-.4.15-.4.14-.4.14-.4.14-.4.12-.4.13-.4.12-.44.12-.44.11-.45.1-.46.1-.47.09-.47.08-.48.07-.49.06-.49V67.41l-.06-.5-.06-.5-.08-.49-.09-.5-.09-.49-.11-.48-.11-.48-.13-.47-.14-.46-.15-.47-.07-.21-.08-.23-.09-.21-.08-.23-.09-.21-.09-.21-.09-.22-.09-.21-.1-.2-.1-.2-.1-.21-.11-.19-.11-.2-.11-.19-.1-.19-.12-.19-.12-.19-.11-.18-.13-.18-.12-.17-.13-.17-.12-.17-.06-.21-.13-.16-.13-.16-.14-.15-.14-.16-.15-.15-.14-.14-.15-.15-.15-.14-.15-.13-.15-.14-.16-.13-.16-.12-.17-.12-.16-.13-.17-.11-.16-.11-.18-.11-.17-.11-.19-.1-.18-.1-.18-.09-.19-.09-.19-.09-.2-.09L100 55l-.21-.07-.2-.08-.2-.06-.22-.07-.17-.08-.22-.06h-.23l-.22-.05h-2.92l-.22-.06-.21-.07-.2-.1-.19-.12-.18-.13-.16-.15-.25-.51-.13-.18-.1-.17h-.16l-.18-.05h-.18l-.4-.11-.41-.11-.42-.09-.4-.09-.37-.08-.25-.16-.28-.05h-.34l-.49-.08-.51-.07-1-.17-2-.32-1-.16-.49-.07-.48-.07-.48-.06h-.48l-.48-.05H79.7zM187 27.53h1.26l.42.07H189.29l.2.05.2.06.19.06.2.07.19.08.19.07.18.08.19.09.19.1.35.18.34.21.34.22.33.24.32.24.31.26.31.27.29.28.29.29.28.3.26.31.27.32.25.32.25.33.23.34.23.35.23.35.21.36.2.37.2.36.18.38.19.38.16.38.17.39.15.39.14.4.14.4.12.4.12.4.1.41.1.41.08.41.07.41.06.41.05.41v2.89l-.06.4-.07.41-.09.39-.05.21-.06.2-.06.2-.07.2-.06.19-.08.2-.08.19-.08.19-.09.19-.1.19-.1.19-.1.19-.19.43-.11.18-.13.18-.12.17-.13.17-.14.17-.14.16-.14.17-.16.16-.15.15-.16.15-.17.15-.17.14-.18.14-.25.17-.25.18-.26.16-.25.15-.26.15-.27.13-.26.12-.27.13-.26.11-.27.1-.27.09-.27.09-.27.08-.27.08-.28.06-.27.06-.27.06H184.54l-1-.09-1-.09-.92-.09H178.19l-.12-.06-.12-.07-.11-.07-.11-.08-.1-.09-.1-.09-.09-.1-.06-.06h-.31L177 50h-1.19l-.12-.05-.12-.06-.12-.07-.11-.07-.12-.08-.17-.13-.16-.14-.14-.15-.13-.14-.13-.17-.18-.27-.16-.29L174 48l-.1-.28-.1-.27-.08-.27-.06-.27-.06-.27V40.02l.06-.35.06-.35.07-.35.08-.35.09-.35.09-.34.11-.34.11-.34.11-.34.13-.34.13-.33.14-.33.15-.33.16-.32.16-.33.17-.31.18-.32.18-.31.19-.31.2-.3.21-.3.21-.29.22-.29.23-.28.24-.28.24-.27.25-.27.26-.26.26-.25.27-.25.28-.24.28-.23.29-.23.3-.21.31-.21.31-.2.32-.19.33-.19.33-.17.34-.17.35-.15.35-.14.36-.13.36-.13.38-.1.37-.1.38-.09.39-.07.39-.06.4-.05H187zm-.66 4.54h-1.53l-.23.06-.23.07-.22.07-.22.09-.22.08-.21.1-.22.1-.21.11-.2.11-.21.13-.2.12-.19.14-.2.14-.19.15-.18.15-.19.16-.18.16-.18.17-.17.18-.17.18-.17.19-.16.19-.16.2-.15.2-.15.2-.14.21-.14.22-.14.21-.13.22-.13.23-.12.23-.12.23-.11.23-.11.24-.1.24-.09.24-.09.24-.09.24-.08.25-.07.24-.07.25-.06.25-.06.25-.05.25v6.08l.06.06.09.1.07.08H182l1 .09.95.1.94.08h5.68l.17-.05.15-.06.16-.06.15-.06.15-.06.15-.08.14-.07.15-.08.14-.08.14-.09.13-.09.13-.1h.08l.07-.06.06-.06.07-.06.06-.06.06-.06.05-.06.06-.07.06-.07.05-.07.05-.07v-.08l.05-.07v-1.18l.05-.24V40.6l-.05-.29-.06-.3-.07-.29-.08-.3-.08-.3-.09-.3-.1-.29-.11-.3-.12-.29-.11-.29-.13-.29-.14-.29-.14-.27-.14-.28-.15-.27-.16-.27-.17-.25-.16-.25-.17-.24-.17-.24-.18-.23-.18-.22-.19-.21-.18-.2-.19-.19-.19-.18-.18-.16-.19-.16-.19-.14-.19-.14-.19-.12-.18-.11-.19-.1h-2.59zM178 45.9z" />
		</g>
	</g>
</svg>
