<svg
	className="wc-block-grid__no-products-image"
	xmlns="http://www.w3.org/2000/svg"
	viewBox="0 0 251.62 294.98"
>
	<g id="Layer_2" data-name="Layer 2">
		<g id="Layer_1-2" data-name="Layer 1">
			<path
				fill="gray"
				d="M80.75 245.1h3.79l.46-.1.4-.17.41-.16.41-.13.41-.13.4-.12.42-.1.41-.09.41-.09.42-.07.42-.07.42-.06.42-.05.43-.05H98.13l.85.05h.84l.83.06 1.59.13 1.51.13 1.4.11.65.05H118l2.43-.05 2.42-.06 4.86-.12 4.6-.11h1.54l.83-.05h5.57l.33-.28.29-.2.26-.15.28-.15.33-.15.34-.12.3-.09.29-.08.27-.06h8.57l1.12.05 1.05.06 1 .06 1.5.09h4.11l1.68.09 1.66.11 1.64.1 1.63.1h1.25l1.65-.06 1.66-.05 1.66-.05h8.49l.81-.05h4.86l.4.05.41.06.42.07.43.09.41.11.24.07.23.08.23.08.24.09.24.11.25.12.25.13.27.16.26.18.33.24.15.14h.26l.52-.11.52-.09.54-.1.55-.08.57-.42.55-.06H198.96l.33.05.33.06.33.07.33.08.33.1.34.11.34.12.33.14.34.15.33.17.33.18.32.2.32.22.31.22.3.25.29.26.3.28.22.23.23.29.24.33.23.41.21.48.16.55.09.63v.66l-.1.67-.19.62-.26.55-.3.47-.31.38-.31.31-.3.24-.32.23-.44.26-.43.2-.37.14-.35.11-.32.09-.3.07-.29.06-.27.05h-.28l-.28.05-.5.06h-.96l-.81.07h-.56l-1 .12-1 .12-.93.1-.9.1-.89.08-.88.09-.86.06-.87.07h-.86l-.87.05h-7.64l-.77.05-.82.07-.86.07-1.83.17-2 .17-1 .09-1 .08-1.06.08-1.07.08-1.08.06-1.09.06H160.21l-.52-.05-.52-.05-.51-.07-.52-.07-.51-.08-.5-.09-.38-.08h-2.59l-1.43.05-2.76.08h-2.54l-2.32.12-2.33.11-2.34.11h-.85.1l.35.07.39.09.4.13.32.13.33.16.38.24.44.34.49.52.22.35.23.41.17.43.13.5.06.51v.53l-.06.5-.1.46-.33.74-.37.54-.34.38-.3.28-.28.2-.24.17-.21.12-.24.14-.24.12-.42.22-.45.19-.44.18-.45.16-.44.14-.44.13-.44.11-.43.1-.43.09-.43.07-.42.07-.41.06H128.97l-1.13.12-1.15.11-1.16.11-1.15.1-1.15.1-1.15.08-1.15.09-1.15.08-1.15.07-1.15.07-1.15.06-1.14.06-1.16.05H96.63l-1.14.26-1.14.24-1.14.23-1.14.23-1.15.21-1.14.21-1.15.19-1.15.19-1.14.18-1.15.16-1.15.16L83 271l-1.15.14-1.15.14-1.15.12-1.14.12-1.15.11-1.16.11-1.15.1-1.14.09-1.15.09-1.15.08-1.15.07-1.15.07-1.21.06-1.14.06-1.15.05h-1.77l-.69.12-.7.11-.7.11-.7.11-.71.1-.7.1-.7.09-.71.09-.69.09-.75.1-.81.1-.88.12-.94.13-1 .11-.51.06-.52.05-.53.05-.54.05h-.13l-.17.05-.29.07-.29.07-.3.05h-3l-.31-.05-.32-.06-.32-.09-.32-.09-.14-.05H45l-.65.05h-5.67l-.34-.06-.33-.06-.34-.08-.33-.07-.34-.09-.34-.1-.33-.11-.33-.12-.34-.12-.33-.14-.33-.15-.33-.16-.32-.18-.32-.19-.38-.24-.4-.3-.54-.55-.25-.4-.22-.39-.16-.41-.12-.35-.12-.75.05-.79.19-.74.3-.63.4-.58.56-.54.54-.36.42-.21.34-.14.28-.09.28-.07.4-.09.39-.06H38.29l1-.07 1.05-.07.78-.06.25-.25.53-.37.59-.28.62-.17.65-.07h.73l.17-.13.25-.18.26-.17.27-.17.26-.15.27-.15.27-.15.28-.14.28-.13.28-.13.29-.12.29-.12.29-.11.3-.11.3-.1.3-.1.31-.09.3-.09.31-.08.31-.08.31-.07.32-.06.32-.05.32-.06h.81-.1l-.32-.08-.31-.09-.32-.08-.32-.1-.31-.1-.31-.11-.32-.11-.33-.13-.26-.11-.42-.21-.25-.19-.51-.42-.42-.5-.31-.5-.23-.55-.15-.57-.06-.59-2.57.9-1 .35-.57.19-1.26.38-1.25.37-1.31.37-.68.19-.68.19-.69.18-.71.19-.72.17-.71.18-.73.16-.74.17-.74.15-.74.15-.76.14-.75.13-.76.12-.76.11-.77.1-.76.09-.76.07H20.75l-.38-.05-.38-.06-.57-.09-.5-.14-.4-.15-.28-.13-.27-.12-.46-.25-.47-.26-.47-.28-.37-.23h-3.98l-.47-.05-.48-.05-.47-.06-.47-.07-.47-.08-.47-.08-.46-.1-.46-.11L8 258l-.45-.12-.45-.14-.45-.15-.44-.17-.45-.18-.43-.24-.43-.2-.42-.23-.48-.26-.39-.31-.61-.47-.27-.38-.33-.57-.19-.58-.12-.55v-1.11l.11-.51.17-.49.24-.46.32-.45.38-.4.29-.26.53-.34.41-.19.36-.13.41-.11.36-.08H8l.84.06.73.05.65.06.58.07.54.06.48.06.45.07.41.06.79.12.4.06.42.07.47.06.53.06.61.07h.17v-.15l.16-.36.23-.45.29-.42.34-.38.4-.34.33-.24.59-.29.47-.16.36-.09H32.75l.55.05.57.07.59.07.55.09h.51l.83.08h2.86l1.63-.05 1.63-.06 1.64-.06h.26l-.08-.17-.16-.55-.08-.57V245l.13-.69.25-.66.36-.6.45-.53.54-.45.5-.29.54-.23.56-.14.58-.06h.4l.55.08.28.07.33.08.34.1.7.21.78.24.39.11.36.11.33.09.28.07h.21l.45.06H73.66l.69.11.66.21.61.33.55.43.46.51.37.59v.09h3.64zM57 260.86z"
			/>
			<path
				fill="#fff"
				d="M114.35 112.65h.39l.38.08.35.09.38.12.4.16.41.21.4.25.37.28.33.31.29.33.26.34.21.34.18.34.14.33.12.32.09.31.07.3V119.02l-.08.44-.1.41-.11.4-.13.39-.15.39-.14.32v.06l-.18.37-.21.36-.22.36-.24.36-.28.35-.28.32-.18.2-.17.17-.19.17-.19.16-.22.17-.22.16-.24.16-.26.15-.28.14-.29.12-.31.12-.34.1-.35.08h-1.54l-.38-.06-.33-.08-.31-.1-.31-.12-.31-.15-.29-.16-.28-.19-.25-.2-.25-.22-.22-.22-.21-.24-.18-.24-.16-.24-.14-.25-.15-.3-.17-.44-.15-.47-.08-.46V119.52l.06-.28.11-.37.13-.37.07-.16v-1.27l.06-.28.07-.28.09-.29.07-.21v-.09l.13-.3.16-.3.18-.3.2-.3.24-.3.27-.29.29-.29.33-.26.36-.25.39-.22.4-.18.42-.15.43-.12.43-.07H114zm.92 8.12h-.07l.32-.16v-.47.14-.32.13l-.07-.28-1.73 1.2h.54-.1.34-.09l.34-.08h-.09l.35-.11h-.08zm.18-.08h.07zm0-.84v.08-.08zm-1.72-4.28h-.2.13l.24.08.16.07.41.6h1.52l-.1-.09-.29-.22-.32-.21h.06l-.36-.18h.06l-.4-.15h.07l-.42-.12h.07l-.44-.07h.07-.43z"
			/>
			<path
				fill="gray"
				d="M126.26 97.5l.51.09.5.15.48.23.39.25.37.3.32.34.29.34.33.62.15.39.1.33.07.28.07.27.07.29.12.58.12.64.12.69.12.75.11.8.07.53.12.19.2.4.17.41.13.38.11.36.09.36.08.35.07.36.06.35v.36l.05.38V117.07l-.05.93v1.41l-.05.46v.46l-.06.46-.05.45-.06.44-.06.44V122.96l-.05.43-.06.42v.22l.11.21.12.29.12.3.09.32.07.33.06.33v1.36l-.05.33v.09l-.06.23-.1.3-.14.34-.24.47-.29.45-.31.41-.32.35-.31.3-.32.27-.31.23-.31.22-.3.18-.31.17-.29.16-.3.14-.3.14-.3.12-.29.11-.3.11-.3.1-.3.09-.31.08-.3.08-.31.08-.3.07-.31.07-.3.06-.32.06h-.31l-.3.05H117.4l-.32-.06-.31-.08-.32-.08-.33-.1-.34-.12-.34-.14-.42-.2-.43-.25-.46-.36-.42-.41-1.34.42-.73.23-.74.23-.76.22-.76.22-.77.22-.77.2-.77.19-.39.1-.39.09-.4.08-.39.08-.39.08-.39.07-.39.06-.39.06-.4.06H99.97l-.47.16H99.08l-.41-.08-.42-.1-.42-.11-.43-.14-.39-.16-.24-.1-.36-.17-.57-.36-.32-.31-.3-.34-.27-.37-.26-.4-.29-.81-.11-.74v-.62l.08-.49.12-.46.19-.51.22-.42v-.06l-.08-.09-.39-.56-.29-.6-.17-.59-.08-.55V123.94l.06-.38.08-.32.09-.29.1-.25.1-.23.11-.23.13-.24-.19-.28-.18-.29-.16-.32-.14-.33-.11-.33-.08-.34-.06-.34V118.63l.06-.51.13-.51.16-.45.18-.4.19-.36.19-.32.2-.29.2-.27.21-.25.21-.23.2-.23.22-.21.22-.21.21-.21.22-.19.22-.19.23-.19.24-.19.46-.36.47-.35.48-.34.49-.34.49-.33.49-.31.49-.31.48-.29.47-.29.46-.28.85-.49.76-.44.63-.35.46-.26.25-.14.45-.27h.06l.7-.4.39-.22.41-.22.42-.22.43-.22.44-.2.25-.1.16-.06.66-.53.73-.56.66-.51.57-.37.63-.26.49-.12.37-.22.38-.23.38-.21.38-.21.38-.2.39-.19.39-.19.38-.18.39-.17.38-.18.39-.16.38-.16.39-.16.74-.28.73-.28.71-.25.69-.23.65-.21.63-.19.57-.17.12-.29.18-.37.32-.5.25-.28.44-.4.49-.34.58-.27.62-.18.64-.07z"
			/>
			<path d="M18.81 243.17l3.49.05h10.64l.87-.05h.86l.86-.06.86-.08.84-.07.83-.09.83-.11.82-.11.39-.06.4-.06.4-.07.4-.07.39-.07.39-.08.38-.08.38-.08.53-.12.53-.12.54-.14.53-.13 1.08-.28 1.09-.29 1.11-.29 1.11-.29.56-.14.56-.13.58-.14.57-.13.57-.12.58-.12.59-.12.58-.1.59-.09.6-.09.6-.08.6-.06.61-.06H61.32l1.09.1 1.09.1 1.08.1 1.08.09 1.08.09 1.08.08 1.08.08 1.08.08 1.09.07 1.08.06 1.07.07 1.08.05 1.08.06h24.75l2.16-.06 2.16-.07 2.17-.08 2.17-.1 2.17-.1 2.18-.11 2.18-.12 2.18-.12 2.19-.14 2.19-.15 2.21-.15 2.2-.15 2.22-.16 2.23-.17H136.62l.44.05.45.05.45.06.88.13.88.13.88.15.87.15.86.15.86.16 1.71.32.84.15.84.14.84.14.82.13.83.12.4.05.41.05H156.44l.36-.05.37-.06.38-.07.58-.12.61-.11.61-.11.61-.1.62-.09.62-.1.62-.08.62-.08.63-.08.63-.07.64-.07.63-.06.64-.06.64-.05.64-.05h.65l.64-.05H183.26l1.3.06 1.3.06 1.3.06 1.28.08 1.28.07 1.27.09 1.26.08 1.24.09 2.45.18 2.39.18.79.06.79.05h12.61l1.58-.05 1.59-.07 1.59-.08 1.58-.09 1.59-.09 1.55.26 1.59-.11 3.2-.23 3.19-.23 3.2-.22 1.61-.11 1.61-.11 1.6-.09 1.61-.09 1.61-.08 1.62-.06 1.61-.05H249.75l.42.13.4.21.34.28.28.35.22.39.12.42.05.45v.44l-.13.43-.21.39-.28.34-.34.28-.39.22-.43.13h-5.16l-1.58.06-1.58.06-1.59.08-1.58.08-1.59.1-1.58.1-1.59.1-3.2.23-3.19.23-3.2.22-1.61.11-1.61.11-1.6.09-1.62.09-1.61.09-1.62.06-1.62.06H199.59l-.82-.05-.82-.06-2.38-.18-2.44-.18-1.24-.09-1.24-.08-1.25-.08-1.26-.08-1.27-.07-1.27-.07-1.28-.06-1.28-.05-1.28-.05H167.19l-.61.05h-.61l-.61.06-.6.06-.6.06-.59.07-.59.07-.59.08-.59.08-.58.09-.58.09-.57.09-.57.1-.5.25-.58.1-.44.09-.46.08-.46.06-.45.06-.46.05H149.81l-.45-.05-.44-.06-.45-.05-.88-.13-.87-.14-.88-.14-.87-.15-.86-.16-1.72-.31-.85-.16-.85-.15-.84-.15-.83-.14-.82-.12-.83-.12-.4-.05-.41-.05h-5.47l-2.22.16-2.23.17-2.22.16-2.21.15-2.21.14-2.21.14-2.2.12-2.19.13-2.2.11-2.19.1-2.19.09-2.19.08-2.18.08-2.18.06-2.18.05H77.35l-1.1-.05h-1.09l-1.09-.05-1.1-.06-1.09-.07-1.1-.06-1.1-.07-1.09-.08-1.1-.08-1.11-.08-1.09-.09-1.11-.1-1.1-.09-1.1-.11-1.09-.11H57.3l-.51.05-.52.05-.52.07-.52.07-.52.09-.52.09-.52.1-.53.11-.53.11-.53.12-.53.13-.54.13-.54.13-1.08.28-1.09.29-1.1.29-1.11.29-.56.14-.57.14-.56.13-.58.13-.42.09-.43.09-.43.09-.43.08-.43.07-.44.08-.44.07-.45.06-.87.13-.89.11-.9.09-.9.09-.9.07-.91.07-.91.06H5.85l-.24.07-.27.08-.29.1-.33.11-.34.1-.2.05-.2.05H2.26l-.26-.39h-.09l-.24-.09-.13-.06-.12-.07-.17-.11-.25-.19-.16-.15-.14-.16-.13-.17-.21-.31-.06-.13-.1-.22-.08-.21v-.79l.05-.45.13-.42.21-.39.29-.34.34-.28.4-.21.42-.13h.89l.42.13.31.16.22-.07.32-.1.34-.11.36-.1.21-.06h12.06zM4.5 245.25V245.04z" />
			<path d="M99.56 176.27h.23l.23.06.22.09.21.11.2.13.18.15.17.18.14.18.13.2.11.22.08.22.06.23V180.31l-.05.25v.26l-.06.25-.06.25-.06.26-.08.25-.07.25-.15.49-.17.49-.19.49-.2.48-.2.48-.21.47-.23.47-.22.47-.24.46-.24.46-.24.44-.24.45-.24.44-.48.86-.48.83-.46.8-.43.77-.2.36-.19.36-.18.34-.17.33-.39.81-.4.81-.38.82-.37.84-.37.83-.36.85-.35.86-.36.85-.34.87-.35.87-.34.87-.33.89-.68 1.77-.66 1.78-.67 1.8-.66 1.8-.86 1.86-.34.91-.35.9-.35.89-.36.9-.36.89-.37.89-.38.89-.39.89-.39.88-.4.85-.21.48-.2.45-.2.46-.19.47-.18.47-.18.47-.17.48-.17.48-.16.48-.17.49-.15.49-.16.48-.3 1-.29 1-.29 1-.28 1-.57 2-.3 1-.31 1-.16.52-.16.53-.17.52-.16.5v4.7l-.06.33-.07.33-.06.19-.06.17-.07.19-.07.18-.09.19-.1.19-.12.19-.13.19-.15.18-.17.18-.18.17-.2.17-.22.14-.22.13-.24.12-.24.1-.25.07-.25.06H74.76l-.23-.07-.22-.08-.21-.12-.2-.13-.18-.15-.16-.17-.15-.19-.13-.2-.1-.21-.09-.22v-1.17l.07-.24.09-.21.11-.22.13-.19.15-.19.17-.16.19-.15.2-.13.21-.1v-4.27l.06-.33.07-.33.06-.19v-.16l.16-.51.16-.49.15-.49.15-.5.3-1 .29-1 .57-2 .29-1 .29-1 .3-1 .31-1 .17-.53.17-.52.17-.52.18-.53.19-.52.19-.52.19-.53.21-.52.21-.52.22-.52.22-.52.24-.51.39-.84.37-.84.37-.85.36-.85.36-.86.35-.86.35-.87.34-.88.34-.88.34-.88.67-1.78.83-1.81.66-1.8.67-1.8.68-1.79.34-.9.35-.89.36-.9.35-.89.37-.89.37-.89.38-.88.38-.88.39-.87.41-.87.41-.86.42-.86.2-.39.2-.39.21-.39.22-.4.45-.8.47-.81.47-.82.46-.83.23-.41.23-.42.22-.41.21-.41.21-.42.2-.41.19-.4.18-.4.17-.4.16-.39.15-.39.13-.37.12-.38.05-.18V178.02l.06-.23.09-.22.11-.21.13-.2.16-.18.16-.17.19-.14.2-.13.21-.1.23-.08.23-.06h.47zM107.06 178.16h.23l.22.05.22.07.21.1.2.11.18.14.18.15.15.17.14.18.12.2.09.21.08.22.06.22v2.08l-.06.33-.07.32-.07.32-.09.31-.09.32-.1.31-.11.31-.11.31-.12.3-.12.3-.13.3-.14.3-.14.3-.14.29-.15.3-.15.29-.16.29-.31.57-.33.56-.33.57-.35.55-.34.55-.35.54-.35.54-.69 1.06-.34.52-.33.51-.31.5-.31.5-.29.48-.28.48-.26.47-.12.22-.11.23-.11.22-.11.22-.09.21-.1.21-.08.2-.08.21-.07.19-.08.21-.33 1-.34 1-.69 2-.69 2-.7 2-1.41 4-.69 2-.69 2-.67 2-.34 1-.33 1-.32 1-.32 1-.32 1-.31 1-.31 1-.3 1-.29 1-.29 1-.28 1-.27 1-.26 1-.27 1.05-.09.3-.11.36-.13.37-.15.39-.16.41-.17.44-.39.94-.42 1-.44 1.05-.59.8-.43 1.11-.43 1-.2.51-.19.49-.18.48-.16.46-.15.42-.13.4-.1.35-.09.32v1.38l-.06.22-.09.22-.1.2-.12.2-.15.18-.16.16-.17.15-.19.13-.21.11-.21.08-.22.07h-1.14l-.22-.07-.21-.09-.2-.12-.18-.13-.17-.15-.16-.17-.14-.18-.12-.2v-.07l-.08-.16-.07-.17V240.52l.05-.23.12-.44.14-.47.12-.38.18-.5.18-.51.2-.52.2-.53.22-.55.44-1.1.47-1.11.41-1.18.44-1 .41-1 .37-.89.16-.39.14-.37.12-.32.09-.28.07-.21.05-.18.26-1 .27-1 .29-1 .29-1 .29-1 .3-1 .31-1 .31-1 .32-1 .32-1 .33-1 .34-1 .33-1 .34-1 .68-2 .7-2 .7-2 1.4-3.94.69-2 .7-2 .68-2 .33-1 .33-1 .1-.28.11-.29.11-.28.12-.29.13-.28.12-.29.14-.27.14-.28.14-.28.15-.28.3-.55.31-.54.33-.54.34-.54.33-.54.35-.54.34-.53.69-1.05.34-.53.34-.52.32-.51.32-.51.3-.51.29-.5.28-.5.12-.24.13-.24.12-.24.12-.24.11-.24.1-.23.1-.23.1-.23.08-.22.08-.22.08-.22.07-.21.06-.22V180l.06-.22.08-.22.11-.2.12-.19.15-.18.16-.17.17-.14.2-.13.2-.11.21-.09.23-.06h.45zm-21.33 63.31v-.05l-.06-.1z" />
			<path d="M107.75 179.49H108.36l.14.06h.07l.11.05h.18l.18.1.15.1.2.16.13.11.17.16.14.18.14.19.11.2.09.21.06.22V182.37l-.07.22-.09.21-.12.2-.13.19-.15.17-.17.16-.18.14v1.49l.06.7.07.72.05.7V191.86l-.06.85-.07.86-.08.85-.09.84-.09.83-.09.82L109 198l-.08.81-.07.81-.06.8V213.7l-.06 1.2-.12 2.41-.13 2.41-.13 2.41-.13 2.4-.13 2.41-.12 2.4-.06 1.2-.05 1.2V242.03l-.09.21-.1.21-.12.19-.14.19-.16.16-.18.15-.19.13-.2.11-.21.09-.22.07H105.11l-.22-.06-.21-.09-.2-.12-.18-.13-.18-.15-.16-.17-.14-.18-.12-.19-.1-.21-.08-.22-.06-.22v-10.26l.06-1.21v-1.22l.12-2.42.14-2.41.13-2.41.13-2.4.13-2.4.12-2.39v-1.2l.06-1.19V200.11l.06-.86.08-.87.08-.85.08-.84.1-.83.08-.83.09-.82.08-.81.07-.8.06-.8v-3.91l-.06-.68-.06-.73-.06-.74V181.96l.05-.18v-.2l.06-.21.08-.22.12-.24.08-.14.07-.11.08-.1v-.05l.1-.12.1-.12.13-.12.18-.15.17-.12.18-.09.2-.08.2-.07h.73zM115.59 177.21h.23l.23.05.21.07.21.09.21.11.18.14.18.15.15.16.15.18.12.2.1.21.08.21v9.26l-.06 1.43-.06 1.43-.07 1.43-.08 1.43-.08 1.43-.08 1.43-.17 2.85-.18 2.85-.18 2.86-.17 2.85-.08 1.43-.08 1.42-.07 1.43-.07 1.42-.07 1.43v1.43L116 218v8.19l-.08 1.87-.1 2.45-.1 2.71V240.93l-.07.21-.09.22-.11.2-.13.19-.15.17-.17.16-.18.14-.19.13-.21.1-.21.08-.22.06h-1.22l-.22-.06-.22-.08-.21-.09-.19-.12-.15-.11-.14-.12-.12-.14-.12-.14-.1-.15-.1-.16-.08-.17-.06-.16V233.08l.1-2.73.09-2.45.08-1.87v-9.62l.06-1.44.06-1.45.07-1.44.08-1.44.08-1.44.08-1.43.17-2.87.18-2.86.18-2.85.17-2.84.08-1.42.08-1.42.07-1.41.07-1.41.07-1.41v-2.82l.05-1.41V178.99l.06-.23.09-.21.1-.2.12-.2.14-.18.16-.17.17-.15.2-.13.2-.11.21-.09.22-.07h.45zm-.42 62l.1.16v-.11l-.13-.16z" />
			<path d="M118.78 178.12h.23l.22.06.21.08.21.1.2.13.18.14.16.16.15.17.13.19.12.2.09.21.07.22V180.69l-.05.23V181.51l.11.36.13.38.13.38.14.36.14.35.23.59.15.37.22.53.22.52.23.51.24.53.25.51.25.52.25.52.27.53.54 1.05.55 1.06.56 1.07.55 1.09.28.55.28.56.27.55.26.57.26.57.26.58.25.58.23.6.23.59.23.61.21.61.19.62.1.32.09.32.09.31.08.33.08.32.08.33.07.32.07.32.15.77.17.8.17.82.18.86.2.87.2.91.21.92.23.94.23 1 .24 1 .25 1 .26 1 .27 1 .27 1 .28 1 .3 1 .3 1 .31 1 .31 1 .33 1 .32.95.35.93.16.45.18.45.17.45.18.43.18.43.17.43.19.42.18.41.18.4.18.4.19.38.18.37.19.37.19.36.19.35.18.33.19.32.19.32.19.3.2.31.09.13.09.16.16.29.14.3.13.3.13.3.12.31.11.31.11.32.22.63.21.63.21.62.11.3.11.29.11.28.11.27.1.24.11.23.1.21.11.19v.14l.05.07v.05h.15l.22.07.21.09.2.11.19.13.18.14.16.17.14.18.12.19.11.21.08.22.06.22v.91l-.06.22-.07.22-.1.21-.12.2-.14.18-.16.16-.17.16-.19.13-.2.11-.21.1-.22.07H140.31l-.28-.05-.27-.08-.26-.09-.24-.12-.22-.12-.22-.13-.19-.14-.19-.15-.17-.15-.16-.16-.15-.16-.14-.16.18-.21-.12-.16-.11-.17-.12-.17-.1-.16-.11-.18-.18-.33-.17-.34-.16-.35-.15-.34-.14-.35-.14-.35-.12-.34-.13-.35-.23-.67-.21-.64-.21-.6-.09-.26-.1-.26-.08-.23-.09-.2-.07-.18-.07-.13-.06-.11-.21-.34-.23-.36-.23-.38-.23-.39-.22-.39-.22-.4-.21-.41-.22-.42-.2-.42-.21-.43-.2-.44-.21-.45-.2-.45-.19-.45-.2-.46-.19-.47-.19-.47-.19-.48-.29-.52-.18-.49-.36-1-.35-1-.34-1-.33-1-.32-1-.31-1-.3-1-.3-1-.29-1-.27-1-.27-1-.25-1-.25-1-.24-1-.23-1-.22-.95-.2-.92-.2-.9-.19-.87-.18-.85-.17-.81-.15-.77-.06-.27-.06-.28-.06-.26-.07-.27-.07-.27-.07-.26-.08-.27-.07-.26-.18-.53-.17-.53-.19-.52-.21-.53-.21-.52-.22-.52-.23-.52-.24-.52-.24-.52-.25-.53-.26-.52-.27-.52-.54-1-.54-1.07-.56-1.07-.56-1.07-.27-.56-.28-.55-.27-.55-.26-.57-.27-.56-.25-.58-.25-.58-.23-.57-.16-.38-.25-.63-.15-.39-.16-.42-.16-.44-.15-.46-.15-.45-.07-.24-.06-.24-.06-.23-.06-.24V180l.06-.2V179.57l.06-.13.08-.14.1-.14.11-.14.13-.14.15-.13.17-.12.18-.11.2-.09.2-.07.22-.06H118.53zm.66 4.35l-.22.07h.17l.1-.05zm.28-.16zM124.25 172.45h.84l.12.05.11.05h.1l.19.11.19.11.24.18.22.18.19.19.18.19.16.2.15.19.15.21.14.2.13.21.13.21.12.22.12.22.13.24.22.45.22.48.21.5.21.51.21.52.2.52.19.54.18.53.19.54.17.53.17.53.32 1 .29 1 .48 1.62.17.6.13.42.19.56.2.58.21.58.21.58.21.59.22.58.23.59.22.58.47 1.18.47 1.18.49 1.18.5 1.19.52 1.19.51 1.2.53 1.21.54 1.2 1.07 2.43 1.08 2.44.53 1.22.54 1.23.53 1.24.52 1.23.52 1.25.51 1.24.49 1.25.49 1.26.24.63.23.63.23.63.23.64.22.63.22.63.21.64.21.64.21.63.2.64.19.64.19.65.18.64.18.64.17.65.16.63.08.3.08.29.09.29.09.3.1.31.11.3.12.32.11.3.13.32.13.32.14.32.14.32.15.31.15.32.16.32.16.32.16.32.17.32.17.31.17.31.18.31.18.31.18.31.19.3.18.29.19.3.19.28.19.28.19.28.19.27.19.27.22.28.09.14.1.17.1.16.1.18.13.3.12.31.1.3.08.3.07.29.06.28v.28l.05.27.08.51.06.48.07.45.16.08.2.13.18.15.17.17.15.18.13.2.11.21.08.22.06.23v.95l-.06.23-.08.22-.11.21-.13.2-.15.18-.17.17-.18.15-.2.13-.22.11-.15.07-.23.08h-.36.02H150.36l-.12-.06-.21-.13h-.05l-.18-.13-.16-.15-.11-.11-.15-.18-.13-.18-.11-.17-.09-.18-.09-.18-.12-.28-.09-.29-.08-.29-.06-.26-.06-.27v-.51l-.08-.49-.06-.46-.07-.45v-1l-.19-.26-.22-.31-.23-.31-.22-.32-.21-.32-.22-.33-.21-.34-.21-.33-.21-.34-.21-.35-.2-.34-.2-.36-.2-.35-.19-.36-.19-.36-.19-.36-.18-.36-.18-.37-.17-.37-.17-.36-.17-.38-.16-.36-.15-.37-.15-.37-.14-.38-.14-.37-.13-.37-.12-.37-.12-.37-.11-.37-.11-.37-.09-.35-.16-.62-.59-.62-.17-.61-.17-.6-.18-.61-.18-.6-.19-.61-.2-.6-.19-.61-.21-.61-.21-.6-.21-.61-.22-.61-.22-.6-.22-.61-.23-.6-.47-1.22-.48-1.21-.5-1.21-.5-1.22-.52-1.21-.52-1.22-.53-1.21-.53-1.21-1.07-2.44-1.08-2.45-.53-1.22-.54-1.21-.52-1.22-.52-1.21-.52-1.22-.5-1.21-.49-1.22-.48-1.21-.23-.61-.24-.61-.22-.6-.23-.61-.22-.62-.21-.6-.21-.61-.21-.62-.16-.5-.19-.64-.48-1.61-.27-.92-.31-1-.16-.5-.16-.49-.17-.5-.17-.49-.18-.49-.17-.47-.18-.46-.18-.43-.17-.41-.18-.38-.17-.35-.08-.15-.08-.15-.08-.13-.07-.12-.07-.11-.06-.09-.06-.09h-.06l-.22-.1-.21-.11-.19-.14-.18-.15-.16-.18-.14-.19-.12-.2-.1-.22-.08-.22-.06-.23v-.95l.07-.22.09-.22.12-.21.14-.2.15-.17.18-.17.19-.14.2-.12.22-.1.22-.08.23-.05h.61zm-.34 4.53h-.12zM102.67 166.74h1.18l.08.05h.08l.07.05.07.06.06.06.07.07.07.06v.07l.06.08.06.07v2.1l-.07.34-.08.34-.1.35-.11.33-.12.34-.14.34-.14.34-.15.34-.16.34-.16.35-.17.34-.18.36-.36.68-.37.69-.38.69-.37.65-.37.64-.66 1.15-.28.5-.25.46v.16l-.06.07v.08l-.05.06-.07.07-.06.07-.07.06-.06.06-.08.06-.07.06h-.07l-.08.05h-2.19l-.08-.05h-.08l-.07-.05h-.08l-.07-.06-.08-.05-.06-.07-.07-.06-.07-.07v-.06l-.06-.07-.06-.07V176.74l.26-.48.31-.54.67-1.17.35-.62.36-.64.36-.64.34-.64.34-.63.15-.3.14-.3.14-.29.13-.28.12-.27.11-.25.09-.24.07-.21.07-.2.05-.17V167.28l.06-.07v-.07l.07-.07.06-.06.07-.07.06-.06.08-.05.07-.06h.08l.07-.05h.08l.08-.05h1.06z" />
			<path d="M121 166h1.21l.32.08.3.09.31.12.31.13.31.16.27.17.17.11.14.1.14.12.13.11.14.12.12.13.13.13.11.13.12.14.11.15.1.14.1.15.1.16.1.17.15.31.15.33.13.35.12.35.1.36.08.38.07.38.07.39V174.77l-.06.12-.08.11-.07.11-.09.11-.09.1-.09.09-.1.09-.11.08-.11.08-.11.07-.12.06-.12.06h-1.71l-.12-.06-.13-.06-.11-.06-.11-.08-.11-.08-.11-.08-.09-.09-.09-.1-.09-.11-.08-.11-.07-.11-.07-.11-.06-.13V171.21l-.05-.12V170.88h-3.1l-.49.08-.5.08-.54.1-1.16.23-.61.11-.64.11-.65.11-.34.05-.35.05h-3.81l-.27.06-.28.06-.3.07-.64.16-.66.17-.67.17-.65.17-.63.16-.32.06-.3.07h-2.36l-.1-.05-.1-.06-.09-.05-.09-.07-.09-.06-.1-.08-.1-.09-.09-.1-.09-.11-.08-.1-.06-.1-.06-.1-.06-.11v-2.1l.05-.11.07-.14.14-.21.13-.17.1-.13.08-.1.1-.1.1-.09.1-.08.11-.08.12-.07.11-.07.12-.06H105.24l.12.06.12.06.12.08h.2l.62-.16.58-.4.69-.18.69-.18.36-.08.36-.08.35-.07.34-.06h.35l.35-.05h3.54l.59-.1.58-.1.59-.11 1.16-.23.57-.1.58-.1.57-.09H121z" />
			<path d="M113.65 169.12H114.64l.09.05.09.05.09.06.08.07.08.07.07.06.08.08.06.07.07.09.06.08.06.08v.18l.05.09V171.73l.06.65.08.8.1.92.12 1 .12 1 .13 1 .14 1 .13 1 .14.91.13.8v.33l.06.3v2.2l-.05.1v.18l-.06.09v.08l-.07.08-.07.09-.06.07-.08.07-.07.07-.08.07-.09.06-.08.06-.09.06H113.83l-.09-.05h-.16l-.09-.05-.07-.06-.08-.05-.08-.07-.07-.06-.07-.07-.07-.08-.06-.07-.06-.08-.06-.09v-.28l.13.29-.08-.19v-.18l-.08-.29-.07-.3-.07-.34-.07-.35-.06-.39-.14-.86-.14-1-.14-1-.15-1.1-.13-1.08-.13-1.06-.12-1-.1-.93-.09-.84-.06-.7V170.22l.06-.09v-.08l.06-.09.07-.08.07-.08.07-.07.07-.07.08-.07.09-.06.08-.06.08-.06h.09l.09-.05h1.1zM109.42 169.12h.65l.1.05H110.38l.09.06.09.06.09.07.09.06.08.08.08.08.08.08.07.08.07.09.06.09.06.1.06.09v4.54l-.07.69-.08.71-.09.7-.1.71-.11.7-.13.69-.13.68-.08.34-.08.34-.07.32-.08.32-.09.32-.09.32-.09.3-.09.26V186.32l-.06.09-.06.08-.07.08-.06.09-.08.07-.07.08-.08.06-.08.07-.08.06-.09.06-.09.05h-.2l-.1.05H106.94l-.09-.05-.09-.05-.09-.06H106l-.08-.07-.07-.07-.07-.07-.07-.08-.06-.08-.06-.08-.06-.1-.06-.09V182.07l.06-.41v-.43l.06-.22.06-.2.08-.26.07-.24.08-.24.06-.26.07-.26.07-.27.06-.29.06-.28.12-.59.11-.61.1-.63.09-.63.08-.63.08-.63.05-.63V170.5l.05-.1.06-.09.06-.1.06-.09.07-.08.07-.09.08-.08.08-.07.09-.07.09-.07.09-.06.1-.06.09-.06.1-.05H109.45z" />
			<path d="M133.38 151.14h1.86l.26.05.26.06.27.06.26.08.26.08.27.1.26.11.26.12.25.14.26.15.24.18.25.18.24.21.22.22.21.25.19.26.18.28.15.27.13.27.12.26.11.26.1.26.09.26.09.25.08.27.07.26.07.26.06.26.05.26V160.37l-.05.24-.05.25-.06.24-.07.24-.07.24-.07.24-.08.23-.09.23-.09.24-.1.22-.1.23-.1.22-.11.22-.11.22-.12.22-.12.21-.13.21-.13.21-.13.2-.13.21-.15.2-.14.2-.15.19-.15.19-.15.19-.16.19-.16.18-.17.19-.16.17-.2.41-.17.18-.35.33-.37.33-.37.31-.39.31-.39.29-.41.28-.41.27-.42.25-.43.24-.43.23-.45.22-.44.2-.46.19-.45.17-.46.15-.24.08-.24.07-.24.06-.23.07-.24.05-.24.06-.24.05H124.04l-.25-.06-.24-.06-.25-.07-.24-.07-.23-.08-.24-.09-.24-.09-.24-.1-.23-.1-.23-.11-.23-.12-.23-.12-.22-.13-.22-.13-.2-.13-.17-.13-.17-.14-.14-.16-.14-.17-.11-.18-.1-.19-.08-.2-.06-.21v-1.07l.06-.21.09-.2.1-.19.11-.18.14-.17.15-.16.16-.14.18-.12.18-.11.2-.09.21-.07.21-.05h1.06l.21.07.2.09.18.11.14.09.13.08.12.07.12.06.13.07.12.06.13.06h.13l.13.05H128.77l.17-.05h.31l.34-.12.32-.12.32-.13.32-.15.32-.15.3-.16.31-.18.31-.18.29-.19.29-.2.28-.21.28-.22.27-.22.25-.23.26-.25.12-.11.11-.12.12-.13.11-.12.11-.13.11-.13.1-.13.11-.12.1-.13.09-.14.09-.13.09-.13.1-.14.08-.13.08-.14.08-.13.07-.14.07-.14.07-.14.06-.13.07-.14.05-.14.06-.14v-.14l.05-.14V156.84l-.06-.15-.06-.15-.06-.15-.07-.15-.06-.12h-4.41l-.45.05h-.46l-.45.06-.45.06-.88.12-.84.12-.4.06-.4.05h-11.63l-1.37.05H110.28l-.7.06-.71.05-.87.2-.71.06-.71.08-.7.07-.7.09-.7.09-.7.1-.69.1-.68.11-.68.11-.67.13-.66.13-.66.13-.64.14-.63.16-.62.15-.61.17-.59.17-.59.18-.57.2-.27.09-.27.1-.27.1-.26.1-.26.1-.26.11-.25.11-.25.11-.24.11-.23.11-.23.12-.23.12-.22.11-.21.13-.21.11-.21.13-.2.12-.19.13-.18.13-.18.13-.18.13-.17.12-.16.14-.16.13-.15.13-.14.14-.14.14-.13.13-.13.14-.12.14-.12.14-.11.14-.06.08v.16l.06.09.07.1.08.1.09.11.1.12.11.12.12.13.13.12.13.13.14.13.15.13.15.14.16.13.17.13.17.14.17.12.36.27.37.26.38.25.38.24.39.24.38.22.37.2.36.2.35.18.33.15.31.14.27.12.24.09.19.07h3.17l1.61-.06h4.09l.19.05.22.07.14.05.13.06.12.07.16.1.16.12.15.13.13.14.13.16.11.17.09.18.09.19.06.19V171.1l-.08.18-.1.19-.12.18-.14.16-.15.16-.17.14-.17.12-.19.11-.2.08-.2.07-.22.05h-.86l-.2-.06-.21-.07-.19-.1h-7.95l-.29-.05h-.21l-.2-.06-.34-.09-.36-.14-.37-.14-.39-.17-.4-.18-.41-.2-.43-.21-.44-.24-.45-.25-.45-.26-.46-.28-.46-.29-.46-.31-.45-.31-.45-.33-.23-.17-.22-.18-.22-.17-.21-.18-.21-.18-.21-.19-.2-.18-.2-.19-.2-.2-.19-.2-.18-.2-.19-.21-.17-.22-.17-.21-.16-.23-.15-.24-.15-.24-.14-.25.04.04-.11-.27-.11-.28-.09-.3-.07-.31v-2.08l.07-.17.07-.17.07-.17.08-.16.1-.15.09-.15.18-.26.18-.25.19-.24.2-.24.2-.23.2-.23.22-.21.22-.22.22-.21.23-.21.24-.2.24-.19.25-.19.25-.19.25-.18.26-.18.27-.17.26-.17.28-.16.27-.16.28-.16.28-.15.29-.15.29-.14.29-.14.3-.14.3-.14.31-.13.31-.13.31-.12.31-.12.32-.12.32-.12.33-.11.64-.22.66-.21.68-.19.68-.19.69-.17.7-.17.7-.16.72-.15.71-.13.73-.14.73-.12.73-.12.73-.11.74-.1.74-.09.75-.1.74-.08.74-.07.74-.08.74-.06.74-.06h.74l.73-.05.73-.05h2.15l1.4-.06H126.33l.37-.05.82-.12.9-.13.48-.06.49-.07.5-.06h.51l.52-.05h2.38z" />
			<path d="M106.2 130.5h.68l.13.06.12.06.13.07.11.07.11.08.11.09.1.09.1.1.09.11.08.11.08.11.06.12.06.11V133.56l-.06.13-.07.12v.11l-.1.26-.1.32-.12.37-.13.4-.12.41-.12.42-.11.41-.09.4-.09.36v3.67l-.06.79-.07.8-.08.8-.1.79-.1.8-.12.8-.12.78-.13.78-.13.77-.15.76-.15.74-.14.67V156.06l-.06.11-.06.1-.06.1-.07.09-.07.09-.08.08-.08.08-.09.08-.09.07-.1.07-.1.07-.11.06h-.1l-.13.05-.12.05H102.77l-.12-.05-.12-.07-.12-.06-.09-.06-.08-.06-.07-.06-.08-.07-.08-.07-.1-.1-.16-.19-.14-.19-.08-.11-.07-.13-.06-.12-.06-.13-.05-.14V154.15l.05-.14v-.12l.07-.13.07-.12.08-.12v-4.29l.15-.71.14-.68.13-.7.13-.72.12-.72.11-.74.11-.74.1-.74.08-.75.08-.74.07-.73v-4.98l.11-.48.12-.5.13-.49.14-.49.14-.48.14-.45.14-.42.13-.38.12-.34.11-.29.11-.26.1-.2.07-.12.06-.1.07-.09.07-.09.07-.09.09-.1.09-.08.1-.09.11-.07.1-.07.12-.06.11-.06.12-.05h.94zM112.85 130h.65l.13.05.12.05.11.06.11.07.11.07.11.08.09.09.1.09.09.1.08.1.07.1.07.11.06.11.06.11v2.59l-.09.92-.07.93v3.62l-.07.76-.07.74-.09.73-.08.72-.09.7-.09.7-.09.69-.07.67-.07.68-.06.67v3.29l-.06.45-.07.45-.07.44-.14.83v1.48l-.05.12-.07.16-.06.13-.06.1v.14l-.07.11-.08.1-.08.1-.08.08-.08.09-.09.07-.09.07-.09.07-.12.08-.11.06-.12.06H110.44l-.11-.06-.12-.06-.12-.07-.11-.08-.1-.09-.09-.09-.1-.09-.08-.1-.08-.11-.08-.1-.06-.11-.07-.12V151.75l.12-.72.14-.82.07-.41.06-.4V146.15l.07-.75.07-.73.09-.73.08-.71.09-.7.09-.7.09-.69.07-.69.07-.68.06-.68V135.49l.08-1 .09-1V132.27l.06-.32v-.61l.06-.11.06-.11.07-.1.07-.1.08-.1.09-.09.09-.09.1-.08.1-.08.11-.07.1-.07.11-.05.12-.06h.12l.12-.05h.76zM120.1 131h.65l.12.06.12.06.12.06.11.08.11.08.1.09.1.09.09.1.08.1.08.11.07.12.07.11.06.13V138.46l.05.79.06.79.07.8.07.79.09.8.09.79.11.79.11.79.12.79.18 1 .1.61.12.67.11.7.1.71v4.02l-.06.21-.07.21-.07.15v.24l-.06.11-.07.1-.06.09-.06.07-.07.08-.08.09-.09.07-.09.08-.1.08-.12.08-.11.07h-2.44l-.09-.05-.09-.05-.14-.09-.21-.14-.13-.11-.1-.09-.1-.09-.09-.1-.08-.11-.09-.11-.06-.11-.07-.12-.06-.12V151.91l.06-.12.07-.12.07-.11.08-.11.09-.11.09-.1.09-.09.1-.09v-1.27l-.09-.65-.1-.65-.11-.63-.1-.6-.18-1-.14-.85-.12-.85-.12-.85-.1-.85-.09-.85-.07-.84-.08-.84-.06-.84v-.84l-.05-.82V132.35l.06-.12.06-.12.14-.11.07-.11.09-.11.09-.1.1-.09.1-.09.11-.08.1-.08.12-.07.12-.06.12-.05h1.06zM125.68 129.56h1.07l.09.05.11.07.1.08.08.07.08.07.11.1.14.16.14.18.17.27.15.27.12.27.11.26.1.26.08.27.09.29.08.28.07.3.08.31.07.32.08.34.13.69.14.74.13.77.13.81.12.83.12.85.12.87.11.88.12.88.1.89.21 1.73.18 1.65.17 1.53.15 1.34.13 1.12.06.45.05.36V151.93l-.06.12-.06.12-.07.11-.07.1-.08.11-.09.1-.09.09-.1.09-.1.08-.11.08-.12.07-.11.07-.12.05h-1.67l-.13-.05-.12-.06-.12-.06-.11-.07-.11-.07-.1-.08-.1-.09-.09-.09-.09-.1-.08-.1-.08-.11-.07-.12-.07-.11-.05-.12v-.5l-.06-.27v-.37l-.05-.42-.07-.49-.13-1.14-.15-1.36-.17-1.53-.19-1.64-.2-1.71-.1-.86-.11-.86-.11-.86-.11-.84-.12-.83-.12-.79-.12-.76-.12-.72-.13-.67-.12-.63-.06-.28-.06-.26-.06-.25-.06-.23-.05-.2-.06-.18-.05-.14-.09-.09-.1-.1-.08-.1-.08-.11-.07-.11-.07-.12v-.11l-.06-.12V130.69l.05-.13v-.24l.07-.11.08-.11.07-.11.09-.1.09-.09.1-.1.1-.08.1-.08.11-.07.12-.07.12-.06.12-.05h.9zm-.43 4.52h-.1z" />
			<path d="M125.23 97.12H127.09l.46.05.45.07.44.08.44.09.43.1.42.12.22.07.21.07.21.07.21.08.2.08.21.09.2.09.17.08.1.05.09.06.14.1.14.1.1.09.1.1.08.09.07.08.09.12.12.19.1.18.09.18.07.17.11.29.09.3.07.29.07.3.05.3v.3l.05.31V103.47l.05.65v4.07l.05.54.06.6.08.66.09.71.11.75.11.79.24 1.7.26 1.78.13.93.12.93.12.94.11 1 .1.95.09.94v6.65l-.05.4-.07.4-.07.39-.09.38-.1.38-.12.38-.13.35-.08.19-.08.18-.08.18-.09.18-.09.18-.11.17-.11.17-.12.17-.12.17-.13.16-.14.16-.14.15-.15.14-.15.14-.16.12-.15.13-.16.11-.16.11-.17.1-.16.1.37.25-.18.1-.33.16-.35.15-.36.14-.36.13-.37.11-.38.11-.39.09-.39.09-.4.08-.4.07-.41.07-.42.06h-10.43l-.89-.05-.87-.05-1.66-.1-1.53-.1-1.36-.09h-7.51l-.42.06-.43.06-.42.07-.44.08-2.64.52h-.95l-.19-.05-.18-.07-.17-.08-.17-.1-.16-.11-.14-.12-.08-.07-.06.09-.11.16-.13.14-.14.13-.18.32-.16.11-.16.09-.18.08-.18.06-.19.05h-1.26l-.25-.08-.24-.09-.22-.12-.16-.1-.19-.13-.16-.14-.15-.14-.14-.15-.12-.14-.12-.15-.11-.17-.16-.26-.15-.29-.13-.28-.1-.28-.1-.28-.08-.27-.06-.28-.07-.27-.05-.28V128.61l.06-.32V123.08l-.08-.81-.08-.81-.1-.83-.1-.84-.23-1.79-.22-1.73-.11-.88-.1-.87-.09-.88-.06-.84V106.77l.07-.41.08-.42.08-.41.1-.41.11-.41.12-.4.13-.4.16-.39.16-.39.2-.42.08-.14.06-.1.07-.1v-.07l.06-.08.07-.08.12-.14.19-.18.19-.17.19-.14.18-.12.2-.11.18-.1.18-.09.18-.07.19-.07.18-.07.19-.07.36-.1.37-.09.37-.08.38-.08.39-.06.39-.05h9.72l.83-.12.87-.14.89-.15.92-.16.95-.17 2-.36 1-.18 1-.18 1-.18 1-.17 1-.16 1-.15.51-.07.51-.07.51-.06.51-.06h4.92zm-.9 4.54H120.8l-.46.06-.48.06-.47.06-.48.06-1 .15-1 .15-1 .17-1 .17-1 .18-1 .17-2 .36-1 .18-1 .16-.93.16-.91.15-.89.13-.44.06-.43.05h-9.74l-.24.05h-.21l-.19.06v.06l-.1.24-.08.25-.08.26-.07.27-.07.28-.06.28V111.51l.07.81.09.82.09.84.11.84.22 1.72.22 1.73.11.87.1.87.09.87.08.87v5.53l-.06.41-.06.41-.07.37v2.8l.17.1.16.11.15.12.1.09.08-.13.11-.15.13-.14.14-.13.16-.12.16-.11.17-.09.18-.07.18-.06h.18l2.66-.52.51-.1.53-.08.52-.08.52-.06.51-.05h8.01l1.39.08 1.53.1 1.65.11.84.05h10.11l.35-.05h.34l.33-.06.31-.05.3-.06.29-.06.27-.07.26-.08.24-.07.21-.08.2-.07.18-.08.17-.08h.29v-.25l.07-.18.05-.19.06-.2.05-.24.05-.24v-6.25l-.08-.89-.1-.9-.1-.9-.11-.91-.12-.91-.13-.9-.25-1.77-.24-1.69-.12-.81-.11-.78-.1-.75-.08-.71-.07-.68-.06-.63V103.87l-.05-.58v-1.3h-.22l-.28-.07-.29-.07-.3-.07h-3.25zM94.85 132z" />
			<path d="M115 109.39H116.45l.21.07.23.09.14.07h.1l.11.06h.13l.08.06.07.06h.05l.06.06.07.06.07.07.06.07.06.09.07.08.06.09.06.09v.18l.24.07.31.1.29.12.3.12.28.14.28.14.27.15.25.16.25.17.25.17.23.2.22.19.21.2.2.22.19.22.18.23.16.23.16.24.14.25.13.25.12.25.11.26.09.26.08.26.07.27.06.27V118.88l-.07.25-.07.26-.07.24-.09.25-.09.25-.09.24-.11.24-.1.24-.12.24-.12.23-.12.23-.14.23-.13.23-.15.22-.14.22-.16.22-.16.22-.16.21-.17.21-.17.21-.18.2-.18.2-.19.2-.19.19-.19.19-.21.19-.2.18-.21.18-.22.17-.21.17-.23.17-.22.15-.23.16-.24.15-.24.15-.24.14-.25.13-.25.13-.26.13-.26.11-.26.11-.27.11-.27.09-.27.09-.28.08-.28.08-.28.07-.29.06-.29.05h-3.01l-.31-.06-.31-.06-.31-.07-.31-.09-.31-.1-.3-.1-.3-.13-.31-.12-.3-.15-.3-.15-.3-.16-.3-.18-.29-.19-.29-.19-.29-.21-.28-.22-.28-.23-.28-.24-.28-.25-.28-.28-.19-.2-.18-.23-.17-.23-.16-.24-.14-.25-.11-.25-.11-.24-.09-.26-.08-.25-.07-.25v-3.64l.05-.23.06-.22.06-.24.13-.44.14-.45.16-.43.16-.43.18-.42.18-.41.19-.4.19-.38.2-.38.21-.36.2-.35.21-.33.21-.32.21-.3.21-.29.21-.27.22-.26.24-.24.17-.17.18-.15.18-.13.18-.13.18-.12.18-.1.19-.1.18-.1.19-.09.2-.09.36-.14.39-.14.39-.13.39-.11.4-.1.4-.1.4-.08.4-.07.4-.06.39-.06H115zm-2.77 4.89l-.28.07-.27.08-.24.08-.24.08-.21.08H110.7l-.06.06-.09.11-.11.14-.13.17-.14.2-.14.22-.15.24-.15.26-.15.27-.16.29-.15.29-.14.31-.14.31-.13.32-.13.32-.11.32-.11.31-.09.32V121.28l.17.16.18.16.18.16.17.15.19.13.17.13.18.12.17.11.17.1.17.1.17.08.16.08.17.07.17.07h.16l.16.06H114.02l.16-.05h.15l.16-.06.16-.06.15-.06.15-.07.16-.08.15-.07.15-.08.15-.09.15-.09.14-.1.15-.09.14-.1.14-.11.14-.11.14-.11.13-.11.14-.12.13-.12.12-.12.13-.12.12-.13.12-.13.11-.13.11-.14.11-.13.1-.13.1-.14.1-.14.09-.14.09-.13.08-.14.08-.14.08-.14.07-.14.07-.14.06-.14.06-.13v-2.75l-.05-.06v-.06l-.06-.06-.07-.07-.07-.06-.07-.06-.09-.07-.1-.06-.1-.06-.11-.07-.12-.06-.13-.06-.14-.06-.15-.06h-.17l-.17-.06H113.53l-.1-.05-.11-.06-.1-.06-.09-.07-.09-.06-.09-.08-.09-.08-.08-.08-.07-.1zM175.83 64.39h.28l.27.08.26.12.24.15.22.18.2.21.17.22.14.25.11.27.08.27V66.99l-.07.28-.1.26-.13.26-.17.23-.19.21-.22.18-.23.16-.26.12-.27.1H174.82l-.24.05-.25.06-.26.07-.28.08-.29.1-.31.1-.31.12-.32.13-.34.14-.34.15-.35.16-.36.17-.36.18-.37.19-.37.2-.39.2-.38.22-.39.22-.4.23-.4.23-.4.24-.4.24-.81.51-.82.52-.83.54-.82.56-.82.56-.81.57-.8.57-.8.57-.77.57-.77.55-.74.55-1.41 1.07-1.31 1-1.17.89-1 .77-.71.53-.71.53-.72.52-.72.52-.72.53-.73.51-.73.52-.73.51-.74.51-.73.5-.74.51-.75.5-.74.5-.75.49-1.51 1-1.51 1-1.51 1-1.53 1-1.54 1-1.54.93-1.56.93-1.55.92-1.56.91-1.57.9-1.57.9-1.57.89-1.58.88-1.58.87-1.59.86-1.58.85-1.56.91-1.59.84-1.59.83-1.59.83-1.59.82-1.58.81-1.59.81-1.58.8-1.57.78-.16.08-.16.09-.39.21-.46.27-.52.31-.58.35-.62.39-1.38.86-3.1 2-1.65 1-.85.52-.84.52-.84.52-.83.5-.82.49-.8.47-.79.44-.77.43-.73.4-.37.19-.35.18-.35.17-.33.16-.33.16-.33.14-.31.14-.31.13-.3.12-.3.1-.3.1-.3.08-.31.07-.32.05h-1.33l-.21-.06-.26-.11-.24-.15-.23-.17-.2-.2-.18-.23-.14-.24-.12-.26-.08-.28V120.61l.06-.27.1-.27.13-.26.16-.23.19-.22.21-.19.23-.16.26-.13.27-.1.28-.06H83.38l.18-.06.19-.07.22-.1.24-.1.26-.11.27-.13.29-.14.3-.15.32-.16.31-.17.69-.37.72-.4.74-.43.78-.45.79-.47.81-.48.82-.51.82-.51.83-.51 1.64-1 3.11-2 1.4-.87.64-.4.61-.37.56-.33.52-.3.46-.26.23-.12.21-.11 1.58-.79 1.57-.79 1.57-.81 1.58-.8 1.57-.81 1.58-.82 1.57-.83 1.58-.83 1.57-.84 1.57-.85 1.57-.85 1.56-.86 1.56-.86 1.55-.88 1.56-.88 1.54-.9 1.54-.89 1.53-.91 1.53-.92 1.52-.92 1.51-.93 1.5-.94 1.5-1 1.48-1 1.48-1 .73-.48.73-.49.73-.49.72-.49.73-.5.71-.5.72-.5.71-.5.71-.51.71-.51.7-.51.7-.51.7-.51.7-.52 1-.76 1.17-.89 1.31-1 1.43-1.07.76-.57.78-.57.8-.58.82-.59.83-.59.84-.59.85-.58.86-.57.87-.57.86-.56.86-.54.44-.26.43-.26.43-.25.43-.25.43-.24.42-.23.43-.23.42-.22.42-.22.41-.2.42-.2.41-.19.41-.18.4-.17.41-.16.4-.15.4-.14.39-.13.4-.12.39-.1.39-.1.39-.07.39-.07H175.65zm-92.41 54.3h-.1z" />
			<path d="M158.14 42H158.6l.21.06.19.07.18.08.17.08.16.08.16.1.27.17.26.19.24.2.23.2.23.2.21.22.21.21.2.22.19.22.2.22.19.22.35.43.33.41.31.4.28.34.23.29.18.21.05.06v.06l.27.26.32.35.37.4.4.44.44.49.47.53.5.57.52.6.55.64.57.66.58.69.59.72.6.72.6.74.61.75.59.75.6.76.59.76.56.75.56.74.53.73.51.72.48.69.23.34.22.34.22.33.2.32.2.32.19.31.17.31.17.3.16.3.14.29.15.29.12.29.12.28.1.29.09.31.08.32.05.32v.64l-.05.29-.09.28-.12.28-.16.25-.19.23-.21.2-.24.17-.27.14-.28.1-.29.07H175.47l-.28-.09-.28-.12-.24-.16-.24-.18-.2-.22-.17-.24-.14-.27-.1-.27-.07-.29v-.52l-.07-.16-.09-.18-.1-.19-.12-.22-.12-.23-.15-.25-.15-.26-.17-.27-.18-.28-.18-.29-.2-.3-.21-.31-.45-.65-.56-.66-.51-.69-.49-.71-.55-.72-.56-.73-.58-.73-.58-.73-.59-.73-.58-.72-.59-.71-.57-.69-.57-.67-.55-.65-.53-.62-.51-.59-.48-.55-.46-.51-.41-.47-.39-.42-.33-.35-.29-.31-.25-.26-.13-.14-.15-.16-.26-.31-.28-.34-.28-.36-.3-.38-.3-.37-.31-.38-.15-.18-.15-.17-.15-.17L158 47l-.13-.15-.14-.12-.05-.05-1 .53-1.85 1-1.85.95-1.84 1-1.84 1-1.84 1-1.83 1-1.83 1-1.83 1-1.83 1-1.82 1-1.82 1.05-1.82 1-1.82 1.07-1.86 1.19-1.82 1.08-1.82 1.09-1.81 1.09-1.81 1.1-1.82 1.1-1.79 1.07-1.81 1.12-3.62 2.28-3.63 2.25-3.63 2.27-7.28 4.55-.39.24-.41.25-.36.24-.42.24-.42.24-.43.25-.85.46-.88.47-.88.46-.9.45-.91.46-.92.45-.92.45-1.85.9-1.86.89-.92.46-.91.45-.92.46-.9.46-.89.47-.88.46-.86.48-.48.24-.42.24-.41.25-.41.24-.41.25-.4.24-.4.25-.39.26-.38.25-.38.26-.37.25-.36.26-.36.26-.35.27-.34.26-.34.27-.32.27-.32.27-.31.27-.3.27-.3.28V96.89l.06.27.07.29.07.3.09.31.09.33.1.33.11.35.11.35.13.36.13.37.13.38.14.38.29.78.32.8.33.8.34.82.34.81.35.81.35.8.7 1.56.67 1.47.61 1.35.28.62.25.58.23.54.21.49.17.44.08.22.06.16v.27l.08.17.11.2.11.22.14.23.15.26.15.26.35.55.37.56.73 1.11.34.52.31.49.15.24.13.23.13.23.12.27.08.19.07.2v1.1l-.07.26-.1.25-.12.24-.15.21-.17.2-.19.17-.2.15-.06.26-.29.11-.3.07h-1.03l-.24-.08-.14-.1-.19-.09-.18-.11-.22-.13-.23-.18-.21-.21-.19-.24-.15-.25-.11-.27-.09-.29v-.59l-.23-.35-.74-1.12-.39-.61-.39-.61-.19-.31-.18-.31-.17-.31-.17-.31-.16-.31-.15-.31-.14-.32-.1-.29-.06-.15v-.14l-.14-.35-.22-.44-.21-.5-.24-.55-.27-.6-.61-1.34-.67-1.48-.71-1.58-.36-.82-.36-.84-.36-.84-.35-.85-.35-.85-.33-.84-.31-.83-.16-.42-.14-.42-.15-.4-.14-.41-.13-.4L70 100l-.12-.39-.11-.39-.1-.38-.1-.38-.08-.37-.08-.36-.07-.37-.06-.35V94.14l.06-.19.07-.2.09-.19.1-.2.11-.2.14-.19.15-.19.15-.16.37-.36.35-.34.36-.33.37-.32.38-.32.38-.31.38-.31.4-.3.4-.31.4-.29.41-.29.42-.29.42-.29.42-.27.43-.28.43-.28.44-.26.44-.27.44-.27.45-.25.45-.26.45-.26.92-.5.92-.5.93-.48.93-.48.94-.47.94-.47.94-.46 1.86-.9 1.85-.9.9-.44.9-.44.88-.44.87-.44.85-.44.83-.44.82-.45.39-.22.39-.22.38-.22.38-.23.37-.22.37-.23 7.3-4.5 3.63-2.27 3.63-2.26 3.64-2.25 1.82-1.12 1.82-1.11L121.4 62l1.82-1.11 1.82-1.1 1.83-1.09 1.83-1.09 1.83-1.08 1.83-1.07 1.83-1.07 1.81-1.11 1.84-1.05 1.84-1 1.85-1 1.85-1 1.86-1 1.85-1 1.87-1 1.86-1 1.87-1 1.88-1 1.93-1h.11l.23-.09h.06l.22-.06H157.85zm15.65 25.29z" />
			<path d="M162.39 30.74h1.26l.31.05.31.05h.31l.3.06.31.07.3.07.3.08.3.09.29.09.3.1.29.11.29.11.29.11.28.13.28.12.29.14.27.13.28.14.27.15.27.15.27.16.27.16.26.16.27.18.26.17.26.18.25.18.26.18.25.19.25.2.25.19.24.2.24.21.24.21.24.21.24.21.24.23.45.43.46.46.44.46.44.48.43.49.42.5.41.5.4.51.4.52.38.53.38.53.37.54.36.54.35.55.34.55.33.56.32.56.31.56.31.56.29.57.29.56.27.57.27.56.25.56.25.57.23.56.23.55.22.56.2.55.2.55.18.54.17.54.17.53.15.53.14.52.12.51.12.51.1.46.05.15.07.22.1.27.12.32.15.36.33.84.38.93.4 1 .21.53.2.55.21.55.19.56.19.56.18.57.17.56.16.55.07.29.07.27.06.28.06.28.05.27v2.5l-.05.29-.07.3-.09.31-.08.22v.19l-.1.2-.1.18-.11.15-.12.16-.12.15-.14.14-.15.14-.16.14-.17.11-.18.11-.17.09-.22.11-.21.09-.22.08-.21.07-.22.06h-2.64l-.32.26-.36-.07-.35-.09-.34-.09-.33-.1-.32-.1-.32-.11-.6-.21-.56-.21-.54-.2-.25-.08-.24-.09-.22-.07-.21-.06H176.26l-.16-.07-.16-.07-.16-.09-.14-.11-.14-.11-.13-.12-.12-.13-.11-.14-.09-.15-.09-.16-.07-.17-.06-.16-.05-.18V67.63l.07-.16.15-.47.08-.16.11-.14.11-.14.12-.13.14-.12.14-.11.15-.09.15-.11.16-.07.17-.06h1.42l.34.05.34.07.33.07.32.09.32.1.31.1.3.09.29.11.57.21.55.2.54.19.24.08.24.08.24.07.23.06H184V66.62l-.05-.2v-.21l-.05-.21-.06-.21-.13-.47-.14-.47-.16-.49-.17-.5-.18-.51-.36-.35-.19-.51-.2-.5-.39-1-.37-.93-.34-.85-.16-.39-.14-.37-.13-.35-.11-.33-.1-.3v-.33l-.09-.45-.1-.43-.11-.43-.12-.45-.13-.45-.14-.46-.15-.48-.16-.47-.17-.49-.19-.48-.19-.5-.2-.5-.21-.5-.22-.51-.23-.5-.24-.51-.25-.51-.26-.51-.26-.51-.28-.5-.28-.51-.29-.5-.3-.5-.3-.5-.31-.49-.33-.48-.32-.48-.33-.47-.41-.47-.35-.45-.35-.45-.36-.44-.37-.43-.37-.43-.37-.4-.38-.4-.38-.39-.4-.37-.19-.18-.19-.18-.2-.17-.2-.17-.2-.17-.2-.16-.2-.16-.2-.16-.2-.15-.2-.15-.21-.15-.2-.13-.21-.14-.2-.13-.2-.13-.21-.12-.2-.12-.21-.12-.21-.11-.2-.1-.21-.1-.2-.1-.21-.09-.21-.1-.2-.08-.21-.07-.2-.08-.21-.07-.21-.06-.21-.07H164.16l-.2-.05H160.39l-.22.05H159.51l-.05.12v3.08l.05.25.05.25v.24l.13.51.13.5.14.5.14.49.14.47.28.92.13.43.12.42.1.39v2.01l-.05.16-.07.16-.06.12-.06.11-.09.14-.09.13-.12.13-.12.13-.13.11-.14.11-.16.09-.16.08-.16.07-.17.06h-1.23l-.17-.05-.16-.07-.16-.08-.16-.09-.14-.11-.57.6-.13-.12-.12-.14-.1-.14-.09-.15-.09-.16-.06-.17-.06-.17v-1.06l-.05-.29-.09-.33-.12-.38-.27-.9-.15-.5-.15-.53-.22-.56-.15-.57-.14-.59-.08-.31-.06-.31-.06-.31-.06-.31-.05-.32V36.03l.07-.34.08-.35.11-.34.11-.33.08-.18.07-.17.08-.17V34l.09-.16.1-.17.11-.16.11-.16.12-.16.13-.15.13-.15.13-.14.15-.14.15-.14.15-.13.16-.13.17-.12.17-.12.18-.1.18-.1.18-.1.19-.09.2-.09.19-.08.2-.07.2-.07.2-.06.21-.05.33-.08.32-.07.33-.06.32-.05.32-.05h1.97zm-5.8 14l-.06.08v-.06l.13-.12z" />
			<path d="M183.84 13.94H184.27l.14.05h.14l.13.05.12.08.13.07.12.09.11.09.1.1.1.11.1.11.08.12.08.12.07.13.06.13.05.14v1.49l-.07.22-.08.2-.06.12v.09l-.06.1-.06.1-.06.1-.07.1-.08.09-.06.08-.07.08-.14.15-.21.2-.21.17-.2.15-.2.14-.2.12-.2.12-.2.11-.2.1-.38.19-.37.17-.36.15-.63.26-.26.11-.19.08-.1.06-.45.29-.5.33-1 .63-1 .63-1 .61-1 .61-1 .61-2 1.2-1 .61-1 .6-1 .61-.48.3-.48.31-.47.31-.47.31-.47.32-.46.31-.46.32-.45.32-.45.33-.44.32-.37.29-.64.5-.37.3-.41.33-.41.34-.4.35-.39.34-.36.33-.15.15-.14.13-.12.13v.14l-.05.14-.06.13-.07.13-.08.13-.08.12-.09.11-.09.11-.11.1-.11.09-.12.09-.12.08-.13.07-.13.06-.13.06H158.66l-.13-.07-.13-.06-.11-.09-.12-.08-.11-.1-.11-.1-.09-.11-.09-.11-.08-.12-.08-.12-.07-.13v-.12l-.05-.14V32.02l.05-.13.1-.21.16-.28.18-.25.17-.23.19-.21.18-.2.2-.2.2-.2.21-.2.43-.4.45-.39.45-.39.46-.39.43-.35.41-.33.68-.53.42-.32.48-.36.49-.35.49-.35.49-.34.49-.34.5-.34.5-.33.5-.32.49-.32.51-.32 1-.63 1-.62 1-.62 2-1.2 1-.6 1-.6 1-.61 1-.6.95-.61.47-.3.5-.33.15-.1.19-.1.29-.14.3-.14.3-.12.61-.26.3-.12.28-.13.26-.13.11-.06.1-.05h.07l.06-.13.08-.12.08-.13.09-.11.09-.11.11-.1.11-.1.11-.09.12-.08.13-.07.13-.07.13-.06.08-.2H183.86zm-22.15 18.29zm-.31-.58l.08.12v.09l-.06-.13-.16-.19zm20-15.6zM215.77 52.49H216.22l.15.06h.14l.14.08.13.07.13.1.12.1.11.1.11.11.1.12.09.13.08.13.07.14.06.14V55.46l-.05.14-.07.15-.06.14-.08.13-.1.12-.09.13-.11.11-.11.1-.12.1-.12.1-.14.08-.14.06-.14.07h-1.45l-.17.06-.19.08-.2.09-.22.09-.22.11-.24.12-.24.12-.26.13-.26.15-.27.15-.28.15-.57.34-.6.37-.61.38-.63.41-.64.42-.64.44-.65.44-.66.45-.65.46-.64.47-.64.46-1.26.91-1.19.87-1.11.82-1 .74-.46.33-.44.31-.4.28-.37.25-.78.51-.78.5-.8.5-.79.48-.8.48-.79.47-1.56.94-.15.09-.19.1-.4.21-.46.24-.46.25-.41.22-.14.08-.11.11-.12.1-.13.09-.13.07-.14.08-.14.06H188.35l-.14-.06-.14-.06-.14-.07-.13-.08-.13-.09-.12-.1-.11-.11-.11-.11-.09-.12-.08-.12-.07-.11-.07-.13-.02.29-.05-.14v-1.6l.06-.13.07-.14.08-.13.09-.12.07-.09.08-.09.08-.08.09-.09.1-.07.16-.13.25-.17.23-.14.24-.13.48-.27.5-.26.46-.24.37-.2.12-.07h.07l1.53-.91.78-.47.78-.47.77-.47.76-.47.74-.47.72-.47.31-.22.36-.25.41-.29.45-.32 1-.73 1.11-.81 1.21-.88 1.26-.93.66-.46.67-.48.67-.47.67-.48.69-.46.67-.46.68-.44.67-.43.66-.42.65-.4.64-.37.32-.19.31-.17.31-.17.31-.16.3-.15.3-.15.3-.14.29-.14.29-.12.29-.11.29-.11.29-.1.29-.09.29-.07.3-.07H215.73z" />
			<path d="M194.51 0H196l.49.06.48.07.48.07.49.09.47.1.47.11.47.12.47.13.45.14.46.15.46.16.45.17.44.18.45.18.47.27.44.2.43.22.43.22.42.23.42.24.41.24.41.26.41.26.4.26.4.28.4.28.39.29.39.29.39.3.38.31.38.31.37.32.37.32.37.33.36.34.37.34.35.35.36.35.35.35.35.36.34.37.34.37.34.37.33.38.33.38.33.39.32.39.32.39.32.4.32.4.31.4.3.41.31.4.3.42.3.41.3.42.29.42.29.42.29.42.29.43.55.85.55.87.54.87.52.87.51.88.5.88.49.87.49.89.46.88.46.87.44.88.43.87.43.86.4.86.4.85.39.85.38.83.37.83.35.8.35.8.33.79.33.77.3.75.3.74.3.72.7 1.76.39 1 .2.52.2.52.2.54.2.55.2.57.19.56.19.59.19.58.17.6.17.6.16.6.15.61.13.62.12.6.06.32.05.31.05.31V54.89l-.05.31-.07.3-.08.3-.08.31-.1.31-.11.3-.13.29-.14.29-.17.28-.18.27-.2.26-.22.24-.23.22-.25.2-.3.23-.26.16-.28.14-.28.12-.28.1-.28.08-.28.06h-2.29l-.25-.05h-.24l-.23-.07-.23-.06-.24-.07-.22-.08-.22-.08-.22-.09-.2-.16-.42-.18-.42-.2-.4-.2-.39-.21-.38-.22-.36-.22-.35-.22-.33-.21-.29-.2-.12.1-.19.13-.19.11-.21.09-.21.06-.22.05h-.96l-.22-.06-.2-.08-.2-.1-.19-.12-.17-.14-.16-.16-.15-.17-.12-.18-.11-.19-.09-.21-.07-.21v-1.11l.06-.21.08-.21.1-.19V53.76l-.05-.16-.05-.18-.06-.2-.06-.19-.07-.21-.07-.21-.09-.22-.18-.46-.2-.48-.22-.5-.23-.5-.25-.51-.26-.51-.26-.51-.27-.5-.27-.5-.27-.48-.27-.48-.27-.45-.26-.42-.25-.4-.24-.37-.23-.34-.2-.29-.18-.25-.15-.2L213 44l-.18-.19-.21-.21-.19-.22-.19-.23-.19-.22-.18-.22-.18-.24-.17-.23-.21-.24-.17-.24-.13-.26-.16-.24-.3-.47-.29-.49-.28-.48-.27-.49-.26-.49-.25-.48-.24-.49-.24-.49-.46-1-.46-.94-.22-.46-.23-.45-.22-.44-.22-.42-.23-.42-.23-.41-.24-.39-.24-.39-.12-.17-.12-.19-.12-.17-.13-.17-.12-.17-.13-.17-.12-.15-.13-.16-.13-.15-.13-.14-.13-.15-.14-.14-.47-.45-.48-.46-.49-.45-.5-.45-.51-.44-.52-.44-.53-.44-.54-.43-.55-.43-.56-.42-.56-.42-.57-.41-.58-.4-.58-.41-.59-.4-.6-.39-.6-.39-.6-.38-.6-.38-.62-.37-.61-.37-.61-.36-.62-.36-.62-.35-.62-.35-.62-.34-.62-.33-.61-.33-.62-.33-.62-.32-.61-.31-.64-.32-.27-.14-.28-.18-.27-.19-.26-.19-.25-.21-.23-.22-.23-.23-.2-.24-.2-.25-.19-.24-.17-.26-.17-.26-.15-.27-.14-.27-.13-.28-.13-.28-.11-.28-.1-.29-.1-.29-.09-.29-.08-.3-.07-.29-.06-.3-.06-.3V8.05l.05-.3v-.3l.05-.3.07-.29.07-.3.09-.29.09-.29.1-.29.11-.29.11-.28.13-.28.14-.27.15-.27.16-.26.16-.27.18-.25.19-.25.21-.24.21-.23.23-.23.24-.21.25-.21.27-.19.28-.18.29-.17.3-.15.31-.13.3-.12.55-.17.53-.16.53-.14.53-.14.52-.11.52-.11.52-.09.53-.08.52-.06.48-.06h.51L193 0h1.51zm-.91 4.53h-1.61l-.41.06-.41.06-.41.07-.43.09-.42.09-.42.11-.43.11-.44.14-.41.13h-.46l-.08.06-.07.07-.07.07-.07.08-.08.09-.07.09-.07.11-.07.1-.08.13-.07.12-.06.14-.07.13-.06.15-.05.15-.06.16-.05.16v3.95l.05.17v.16l.05.16.06.16.06.15.06.14.07.14.07.13.06.12.08.12.07.1.07.1.07.09.08.09.07.07.08.07.07.06.07.06H187.96l.1.06.6.3.64.33.64.33.64.33.65.35.64.35.65.35.64.37.65.36.64.38.65.38.64.38.65.39.64.4.63.41.64.41.63.42.63.42.62.43.62.44.61.44.6.45.6.45.6.46.58.47.58.48.57.47.56.49.56.49.54.5.53.51.52.52.2.2.2.22.2.21.18.22.19.22.18.22.17.23.17.23.17.23.16.23.15.23.16.24.29.47.29.48.27.48.27.48.25.48.25.49.24.48.24.48.45 1 .46.94.23.46.22.45.23.44.23.44.23.42.23.41.24.39.25.4.12.17.12.19.13.18.13.17.12.18.13.16.14.17.13.16.13.15.14.15.14.15.16.17.11.11.13.15.23.27.24.31.24.34.26.37.26.39.28.43.28.45.29.47.29.5.3.51.3.53.29.55.3.55.29.56.29.57.27.57.27.57.25.57.24.56.21.55.14.69.1.27.09.27.09.28.08.26.2.06.21.1.19.1.19.14.16.14.1.09.1.09.14.12.17.13.19.14.22.16.23.16.26.17.26.17.28.17.28.16.3.16.29.14.29.14.31.14h.27l.14.05H228.55V54.52l.05-.16V49.85l-.1-.52-.12-.52-.12-.52-.14-.53-.15-.53-.16-.53-.16-.53-.18-.53-.17-.52-.19-.52-.18-.51-.19-.51-.19-.5-.19-.49-.37-1-.71-1.74-.28-.71-.29-.72-.31-.74-.31-.74-.32-.77-.34-.77-.35-.79-.35-.8-.37-.81-.37-.81-.39-.83-.39-.82-.41-.84-.42-.83-.42-.84-.44-.84-.44-.84-.46-.85-.47-.84-.48-.83-.48-.83-.5-.83-.51-.83-.51-.81-.53-.81-.27-.4-.27-.39-.27-.4-.27-.39-.28-.39-.28-.38-.28-.38-.28-.39-.28-.37-.3-.37-.28-.37-.3-.37-.29-.35-.3-.36-.3-.35-.3-.35-.3-.34-.3-.34-.31-.34-.31-.33-.32-.32-.31-.32-.31-.31-.32-.31-.32-.3-.32-.3-.33-.29-.32-.28-.33-.28-.33-.27-.33-.27-.34-.26-.33-.25-.33-.25-.34-.24-.34-.23-.34-.23-.34-.22-.35-.21-.35-.2-.34-.2-.35-.19-.36-.18-.35-.18-.35-.16-.31-.11-.36-.15-.35-.15-.36-.13-.36-.13-.36-.12-.37-.11-.37-.1-.38-.11-.37-.08-.37-.08-.38-.07-.37-.06h-2.71zm24.93 49.21l.06-.07zM70.87 102.33H71.44l.29.08.28.09.27.11.25.11.23.12.24.16.22.12.38.23.35.22h.74l.15.05h.13l.13.07.14.08.12.08.12.09.1.1.11.11.1.11.09.11.08.13.07.13.07.13.06.14V106.77l-.05.12V107.1l-.07.1-.07.1-.08.09-.08.09-.09.08-.09.09-.1.07-.1.07-.1.06-.12.07H73.26l-.17-.06-.24-.11-.2-.1-.18-.1-.16-.11-.31-.19-.3-.19-.29-.19-.28-.17-.33.3H70.65l-.21.12-.43.25-.43.27-.44.28-.44.29-.45.32-.44.32-.45.33-.46.34-.46.36-.46.37-.46.37-.47.38-.94.78-1 .79-.95.8-1 .8-1 .8-.49.39-.49.39-.49.39-.5.38-.5.37-.5.36-.5.36-.51.35-.18.1-.18.12-.37.22-.41.22-.44.24-.45.25-.46.26-.45.27-.45.26-.21.14-.2.12-.19.13-.18.13-.16.11-.15.12-.12.1-.11.1h-.06v.13l-.05.14-.06.14-.07.13-.08.13-.08.12-.09.12-.1.11-.11.1-.11.1-.12.09-.13.08-.12.07-.14.06-.14.06h-1.6l-.14-.06-.13-.07-.12-.08-.13-.08-.11-.09-.11-.1-.1-.11-.1-.11-.09-.12-.08-.12-.07-.14-.07-.13-.05-.14v-1.32l.06-.24.07-.23.08-.22.09-.19.1-.18.1-.17.11-.16.12-.16.16-.21.22-.24.24-.22.24-.22.24-.2.25-.19.25-.18.25-.19.26-.17.26-.17.27-.16.52-.31.52-.3.49-.28.47-.26.42-.24.36-.2.3-.17.1-.06h.08l.44-.3.45-.31.45-.33.45-.34.45-.35.46-.36.46-.36.47-.38.94-.77.94-.78 1-.8 1-.81 1-.79.48-.4.49-.39.49-.39.5-.39.49-.37.5-.37.5-.36.51-.35.51-.34.51-.34.51-.31.52-.3.26-.15.26-.14.27-.14.31-.16h1.58zm-19.28 18.19zm20.2-14.14zM77.88 114.33h.69l.12.05h.12l.12.06.11.06.11.07.1.08.09.08.1.09.08.09.09.1.08.1.07.1.06.12.06.11.06.12v1.6l-.05.13-.06.12-.06.12-.07.12-.08.11-.08.11-.09.1-.1.1-.1.09-.11.09-.12.08-.11.07-.12.06-.13.06h-.39l-.14.1-.19.15-.22.16-.5.39-.54.44-.57.47-.59.49-.57.48-1.07.91-.84.71-.32.26-.15.13-.15.1-.45.29-.42.27-.44.27-.46.26-.46.26-.47.27-.48.26-.49.26-1 .53-1 .53-1 .53-1 .52-1 .54-.47.26-.48.26-.45.27-.45.26-.44.26-.42.26-.4.26-.38.25-.36.25-.34.25-.32.25-.14.12-.14.11-.13.12-.13.11-.12.11-.13.13-.1.09-.1.09-.11.08-.12.07-.12.07-.13.06-.12.05H56.04l-.13-.06-.12-.06-.12-.06-.11-.08-.11-.08-.11-.09-.1-.1-.09-.1-.09-.11-.07-.11-.08-.11-.06-.12-.06-.12v-.13l-.05-.13V129.2l.06-.13.06-.12.07-.12.07-.11.08-.11.1-.11.09-.1.16-.16.19-.17.19-.17.19-.17.2-.17.21-.17.4-.31.44-.32.44-.31.45-.3.47-.3.47-.3.49-.29.49-.29.5-.28.5-.28.52-.29 1-.54 1-.54 1-.54 1-.52 1-.51.47-.25.45-.25.44-.24.42-.24.4-.24.39-.23.36-.23.31-.2.24-.21.94-.38 1.07-.91.59-.5.61-.5.6-.5.59-.48.55-.43.27-.2.26-.19.25-.18.25-.16.25-.16.26-.14.18-.09.21-.08h.88z" />
			<path d="M40.39 111.32H42.01l.16.07.15.08.14.09.14.1.13.11.12.12.11.13.1.13.09.14.08.15.07.16.06.16.47.35.94.68.86.62.69.5.45.32.45.35.46.35.46.37.46.39.46.39.46.41.44.42.22.22.23.22.21.22.22.23.21.23.21.23.2.23.2.24.2.24.2.25.19.25.18.25.18.26.18.26.17.27.16.26.18.3.18.32.18.32.17.33.18.34.18.36.18.36.17.37.17.39.17.38.17.4.17.41.16.4.16.42.16.43.15.43.15.44.15.44.14.45.13.45.13.45.12.46.12.47.11.46.1.47.09.47.1.47.07.48.07.47.06.48.05.48v3.82l-.06.46v.71l-.05.24-.06.22-.05.24-.06.23-.07.23-.08.22-.07.23-.08.23-.09.22-.09.22-.1.22-.1.22-.11.21-.11.22-.12.21-.12.21-.14.21-.13.2-.14.2-.15.2-.16.2-.16.19-.16.19-.17.18-.18.18-.19.17-.19.17-.19.17-.2.16-.21.16-.21.15-.22.14-.22.15-.23.13-.23.13-.24.13-.3.36-.25.12-.25.11-.26.1-.26.1-.27.09-.27.08-.27.08-.3.08-.23.05h-3.1l-.27-.05-.27-.06-.27-.07-.27-.09-.27-.09-.27-.1-.27-.12-.27-.13-.26-.15-.27-.16-.25-.18-.26-.2-.25-.22-.23-.25-.21-.25-.13-.16-.1-.15-.09-.15-.1-.16-.08-.17-.08-.17-.07-.17-.06-.18-.06-.19-.07-.21-.09-.37-.09-.38-.06-.37V136.45l-.06-.22V135.4l-.06-.09-.18-.3-.2-.31-.22-.33-.23-.34-.25-.35-.26-.36-.26-.37-.28-.38-.59-.78-.62-.81-1.28-1.67-.65-.87-1.43-.84-.32-.45-.31-.44-.31-.44-.31-.45-.3-.44-.29-.45-.28-.44-.28-.45-.25-.45-.26-.45-.23-.45-.23-.46-.21-.44-.1-.24-.1-.22-.09-.24-.08-.22-.08-.23-.08-.24-.07-.23-.07-.23-.06-.24-.05-.24-.05-.24v-2.24l.05-.26.05-.25.07-.26.08-.25.1-.25.1-.25.13-.24.13-.24.15-.23.16-.22.17-.22.19-.21.19-.2.21-.19.21-.18.22-.17.23-.16.24-.16.24-.14.26-.14.26-.12.26-.12.27-.12.28-.1.29-.1.3-.09.3-.08.27-.03.32-.08.32-.06.34-.06.34-.06H40.37zm-.93 4.68h-2.77l-.17.06h-.17l-.15.06-.13.06-.13.06h-.11l-.11.06H35.55l-.07.05h-.07V117.96l.05.14V118.39l.06.16.07.15.07.16.15.34.18.34.18.36.21.37.22.37.23.38.24.39.26.39.27.4.28.41.28.41.3.41.3.41.61.83.63.84 1.28 1.66.63.82.61.82.3.4.29.39.28.4.27.39.27.39.25.38.25.38.23.39.11.19.11.19.1.2.09.19.09.2.08.2.08.19.07.2.07.2.07.21.1.37.09.38.07.39.06.37.05.37v5.73l.06.2v.09H48.66l.18-.05.16-.05.16-.06h.16l.15-.06.15-.06.13-.07.14-.06.13-.07.12-.07.13-.07.11-.08.11-.07.11-.08.11-.08.1-.08.09-.08.1-.09.09-.08.08-.09.09-.09.08-.1.08-.09.08-.1.07-.1.08-.1.06-.11.07-.1.07-.11.06-.12.06-.11.06-.12.06-.12v-.12l.06-.13v-.26l.05-.13v-5.31l-.06-.39-.07-.39-.07-.4-.08-.4-.09-.39-.09-.4-.1-.4-.11-.39-.11-.4-.11-.39-.13-.39-.12-.39-.14-.38-.13-.37-.14-.38-.13-.36-.15-.36-.14-.36-.15-.35-.15-.33-.15-.33-.15-.33-.15-.3-.15-.31-.15-.29-.15-.28-.15-.27-.15-.25-.14-.24-.11-.18-.12-.19-.12-.18-.13-.18-.14-.19-.14-.18-.14-.19-.16-.18-.15-.19-.16-.18-.16-.18-.18-.19.52 1.3-.17-.18-.18-.18-.18-.17-.38-.36-.38-.34-.39-.34-.4-.33-.4-.32-.4-.31-.4-.3-.41-.3-.69-.49-.87-.64-.93-.68-.9-.64-.57-.41z" />
			<path
				fill="#fff"
				d="M103.87 93.54h.48l.16.07.15.07.14.09.14.09.13.11.12.12.11.12.1.13.1.14.08.15.07.15.06.16.05.16V96.25l-.05.17-.06.15-.07.15-.08.15-.1.14-.1.13-.11.12-.12.12-.21.18V97.73l.39-.22 1.32-.77 1.22-.71 1.39-.8 1.37-.79.62-.34.08-.06.24-.15.18-.09.12-.06.44-.23.41-.22.21-.1.14-.06H114.59l.16.05.15.07.15.07.15.09.53-.51.26-.26.27-.25.27-.24.26-.23.27-.23.28-.22.28-.2.28-.19.18-.1.17-.1.18-.09.2-.08.22-.08.16-.05H120.67l.13.06.12.07.12.07.12.08.11.08.1.1.09.09.09.09.07.11.07.09.06.09.06.1v.06l.06.13.06.14v2.14l-.07.18-.07.19-.14.29-.16.27-.17.25-.17.23-.19.22-.19.21-.2.21-.2.2-.22.2-.23.2-.23.2-.24.21-.24.2-.26.2-.27.21-.54.4-.58.41-.59.42-.62.41-.63.41-.65.42-.66.41-.66.4-.66.4-.66.39-.65.38-.64.36-.62.35-.61.34-.58.32-.56.3-.52.28-.49.25-.45.23-.42.2-.37.19-.33.15-.27.11-.37.15-.39.18-.41.19-.44.21-.46.22-.46.23-.9.46-.81.43-.66.35-.6.33-.15.08-.16.07h-.6l-.2.13-.28.16-.27.15-.28.14-.29.14-.28.14-.28.12-.28.12h-.12l-.32.21-.37.25-.38.23-.38.23-.38.22-.39.22h-.08l-.38.29-.39.28-.4.28-.4.27-.47.3-.24.13-.24.12-.5.22-.26.12-.1.1-.6.66-.3.32-.16.17-.16.16-.17.16-.19.16-.21.18-.17.11-.1.06-.11.07h-.09l-.12.06-.13.06H87.22l-.12-.06-.15-.08-.14-.1.19.32-.12-.11-.11-.11-.1-.13-.08-.11-.06-.11-.07-.11-.07-.14-.06-.14v-2.01l.1-.2.07-.12v-.09l.06-.08.06-.08.07-.1.07-.09.14-.15.2-.2.2-.17.13-.1h-.06l-.09-.07-.1-.1-.1-.09-.11-.11-.09-.12-.09-.14-.08-.14V107.99l.06-.14.06-.13v-.07l.07-.14.1-.12v-.08l.06-.08.08-.09.12-.13.18-.18.16-.14v-1.1l.06-.15v-.22l.06-.1.07-.11.06-.1.09-.12.14-.17.15-.16.23-.22.25-.2.25-.19.27-.19.28-.19.29-.19.3-.19.31-.2.34-.2.67-.39.7-.41v-.19l.06-.11v-.06l.07-.11.07-.11.09-.11.1-.12.12-.11.08-.07.09-.07h.06l1.3-.87 1.42-1 1.5-1 1.46-1 2.39-1.64 1-.68.14-.1.15-.07.15-.07.15-.06h1zM109.46 116.33l.18-.29.22-.28.24-.25.5-.36.29-.13.91.3.35-.47.45-.42.51-.34.56-.25.6-.14h.61l.61.07.58.17.55.28.49.36.42.45.34.51.24.56.14.6v1l-.15.15-.07.31-.11.47-.08.28v.26l-.07.32-.08.34-.1.35-.12.38-.14.38-.15.38-.11.22-.1.21-.11.21-.12.21-.14.22-.15.21-.16.23-.18.22-.2.22-.23.22-.23.2-.27.21-.3.19-.32.18-.34.16-.37.13-.38.11-.4.07h-1.19l-.38-.06-.37-.09-.41-.12-.38-.15-.37-.21-.32-.23-.33-.29-.36-.43-.28-.44-.19-.4-.13-.36-.1-.34-.06-.31v-2.16l.06-.28.08-.29.1-.3.12-.3.15-.32.19-.34.2-.29.11-.34.15-.32zm2 5.36h-.06.09l-.18-.08zm-.93-.67l.13.11-.16-.15zm3-.78h-.06l.22-.13-.1-.1zm3.57-1.35l.65.13.43-1.19zm1.1-1.1v-.2z"
			/>
			<path
				fill="gray"
				d="M158 272h1.17l.44.05.44.05.43.07.25.05.24.05.25.07.24.07.26.08.27.1.27.12.29.14.3.17.31.2.32.24.32.29.32.35.27.36.21.33.17.32.15.36.13.39.1.41.06.44v.91l-.08.45-.12.42-.15.4-.18.36-.19.32-.21.28-.21.26-.21.22-.2.19-.24.2-.42.28-.37.23-.35.19-.33.16-.33.13-.31.12-.3.11-.3.09-.29.08-.29.08-.3.07-.53.12-.52.11-.49.09-.44.08-.73.12-.79.15-.89.15-.95.16-1 .15-.49.07h.1l.68.19.63.31.57.41.5.51.39.58.3.65.17.68.06.71-.07.7-.19.68-.3.64-.41.58-.5.49-.58.41-.64.3-.68.18H153l-.17.42-.41.59-.31.34-.24.23-.22.19-.24.17-.22.16-.24.15-.25.14-.38.17-.35.14-.27.09-.25.07h-.07l.14-.05.13-.06.1-.06.12-.06.13-.09.13-.1.12-.1.12-.12.1-.11.09-.11.07-.1.06-.09-1.62.5h.15l-.31.05h-.06l-3.36 1-.27-.85h-9.43l-.68-.06-.67-.18-.63-.29-.57-.4-.49-.49-.23-.33-.18-.06-.24-.09-.25-.11-.26-.13-.27-.15-.29-.19-.29-.22-.29-.26-.3-.31-.28-.36-.26-.41v-.08h-8.3l-.61.05H118.23l-.31-.05-.34-.06-.37-.1-.43-.14-.47-.21-.46-.28-.33-.24-.28-.25-.27-.3-.27-.34-.24-.37-.2-.42-.26-.16-.1-.45-.06-.43V285.3l.05-.37.07-.33.1-.34.16-.41.21-.42.24-.4.27-.36.29-.33.31-.29.31-.25.3-.21.3-.19.29-.15.28-.14.27-.1.26-.1.24-.08.23-.06.24-.06.38-.09.37-.07.32-.05H119.77l.09-.47.11-.44.37-.71.39-.51.41-.41.5-.38.42-.23.28-.13.22-.1.22-.09.25-.09.4-.14.43-.12.42-.11.43-.09.42-.09.42-.07.42-.06.43-.06.43-.06h2.12l.83-.05h.81l1.49-.08h2.06l1.07-.17 1.09-.18 1.1-.18 1.1-.2 1.11-.2 1.11-.2 2.24-.41 1.13-.21 1.14-.21 1.14-.2 1.14-.19 1.15-.19 1.16-.18 1.16-.17 1.15-.15.5-.07.45-.06.56-.06.65-.08.71-.06.75-.06h2.23z"
			/>
		</g>
	</g>
</svg>
